<?xml version="1.0" encoding="utf-8" ?>
<svg baseProfile="full" height="474" version="1.1" viewBox="0 0 474 474" width="474" xmlns="http://www.w3.org/2000/svg" xmlns:ev="http://www.w3.org/2001/xml-events" xmlns:xlink="http://www.w3.org/1999/xlink"><defs /><path d="M 264,395 Z" fill="black" /><path d="M 261,393 Z" fill="black" /><path d="M 302,382 L 302,383 L 303,383 L 303,382 Z" fill="black" /><path d="M 343,300 L 342,301 L 343,301 Z" fill="black" /><path d="M 343,109 Z" fill="black" /><path d="M 345,105 L 345,107 Z" fill="black" /><path d="M 343,102 Z" fill="black" /><path d="M 128,102 Z" fill="black" /><path d="M 339,102 L 280,124 L 190,124 L 130,103 L 156,150 L 138,294 L 194,350 L 173,375 L 211,386 L 210,354 L 262,354 L 260,386 L 299,376 L 278,351 L 318,324 L 338,284 L 314,149 Z" fill="black" /></svg>