<?xml version="1.0" encoding="utf-8" ?>
<svg baseProfile="full" height="143" version="1.1" viewBox="0 0 256 143" width="256" xmlns="http://www.w3.org/2000/svg" xmlns:ev="http://www.w3.org/2001/xml-events" xmlns:xlink="http://www.w3.org/1999/xlink"><defs /><path d="M 131,137 L 132,137 Z" fill="black" /><path d="M 179,135 Z" fill="black" /><path d="M 76,135 Z" fill="black" /><path d="M 72,135 Z" fill="black" /><path d="M 181,134 L 182,135 L 183,135 L 182,134 Z" fill="black" /><path d="M 122,134 L 122,135 L 123,135 Z" fill="black" /><path d="M 74,134 Z" fill="black" /><path d="M 111,133 Z" fill="black" /><path d="M 146,130 Z" fill="black" /><path d="M 111,130 Z" fill="black" /><path d="M 144,128 Z" fill="black" /><path d="M 196,127 Z" fill="black" /><path d="M 59,127 Z" fill="black" /><path d="M 115,127 L 120,131 L 124,131 L 127,133 L 128,131 L 131,131 L 133,133 L 136,130 L 142,128 L 142,127 L 141,128 L 137,126 L 140,125 L 136,125 L 128,129 L 117,125 L 119,127 L 118,128 Z" fill="black" /><path d="M 130,120 L 131,120 Z" fill="black" /><path d="M 128,118 L 129,118 Z" fill="black" /><path d="M 158,114 Z" fill="black" /><path d="M 104,104 Z" fill="black" /><path d="M 145,100 Z" fill="black" /><path d="M 140,100 L 140,105 L 138,110 L 138,115 L 142,123 L 145,121 L 149,121 L 151,120 L 151,119 L 142,113 L 140,109 L 140,105 L 141,104 L 140,103 Z" fill="black" /><path d="M 90,99 Z" fill="black" /><path d="M 166,97 L 167,97 L 168,98 L 167,97 Z" fill="black" /><path d="M 139,95 Z" fill="black" /><path d="M 117,95 L 115,102 L 116,107 L 115,113 L 113,115 L 111,115 L 102,120 L 108,120 L 114,123 L 116,122 L 119,112 L 116,105 Z" fill="black" /><path d="M 87,94 L 85,96 L 84,96 L 83,97 L 81,97 L 80,98 L 81,99 L 84,99 L 85,98 L 85,97 L 86,96 L 86,95 Z" fill="black" /><path d="M 84,87 L 84,88 L 82,90 L 82,91 L 79,94 L 77,94 L 74,96 L 76,98 L 77,97 L 78,97 L 80,95 L 80,94 L 84,89 Z" fill="black" /><path d="M 173,85 L 173,88 L 175,90 L 177,95 L 175,96 L 174,95 L 172,95 L 170,93 L 171,97 L 175,99 L 177,95 L 178,95 L 179,97 L 183,96 L 175,90 L 174,88 L 175,87 L 174,85 Z" fill="black" /><path d="M 103,84 Z" fill="black" /><path d="M 138,83 L 137,84 L 137,86 L 136,88 L 139,88 L 141,90 L 142,92 L 142,95 L 144,98 L 145,97 L 145,95 L 144,94 L 144,92 L 142,90 L 143,88 L 142,87 L 142,85 L 144,83 L 144,82 L 142,83 Z" fill="black" /><path d="M 132,82 L 133,82 Z" fill="black" /><path d="M 127,82 L 123,90 L 124,89 L 126,90 L 127,92 L 126,93 L 122,92 L 121,95 L 128,110 L 130,102 L 132,100 L 135,92 L 132,93 L 130,91 L 132,88 L 128,85 L 129,86 L 128,87 L 126,86 Z" fill="black" /><path d="M 124,82 Z" fill="black" /><path d="M 176,82 L 176,85 L 177,86 L 177,87 L 178,87 L 184,93 L 184,94 L 185,94 L 186,95 L 189,94 L 189,91 L 188,90 L 183,90 L 180,87 L 180,84 L 179,83 L 179,82 L 178,81 L 177,82 Z" fill="black" /><path d="M 80,81 L 79,81 L 78,82 L 78,84 L 77,85 L 77,88 L 76,89 L 75,89 L 74,90 L 71,90 L 70,91 L 68,91 L 68,94 L 69,95 L 72,95 L 80,87 L 80,86 L 81,85 L 81,82 Z" fill="black" /><path d="M 123,79 L 122,80 L 123,80 Z" fill="black" /><path d="M 135,77 L 134,77 L 133,78 L 125,78 L 126,78 L 127,79 L 126,80 L 127,79 L 130,79 L 131,78 L 133,78 L 134,77 Z" fill="black" /><path d="M 121,77 Z" fill="black" /><path d="M 124,76 L 125,76 Z" fill="black" /><path d="M 182,75 L 181,76 L 181,81 L 184,84 L 184,85 L 185,85 L 187,87 L 192,88 L 194,86 L 194,84 L 193,83 L 190,83 L 189,84 L 185,84 L 184,83 L 184,75 Z" fill="black" /><path d="M 76,76 L 73,75 L 73,83 L 71,85 L 69,84 L 65,84 L 64,83 L 64,88 L 68,88 L 69,87 L 71,87 L 75,83 L 77,79 L 76,78 Z" fill="black" /><path d="M 124,74 L 123,74 L 122,75 L 121,75 L 122,75 L 123,74 Z" fill="black" /><path d="M 129,72 Z" fill="black" /><path d="M 75,72 Z" fill="black" /><path d="M 195,72 L 194,72 L 193,71 L 192,71 L 191,72 L 190,72 L 189,73 L 189,75 L 188,76 L 188,80 L 189,79 L 191,79 L 192,78 L 193,78 L 194,77 L 194,76 L 195,75 Z" fill="black" /><path d="M 127,71 L 127,72 Z" fill="black" /><path d="M 124,71 Z" fill="black" /><path d="M 64,71 L 63,72 L 63,78 L 64,79 L 65,79 L 66,80 L 69,80 L 69,77 L 68,76 L 68,74 L 67,73 L 67,72 L 65,72 Z" fill="black" /><path d="M 133,70 Z" fill="black" /><path d="M 128,68 L 127,69 L 128,69 Z" fill="black" /><path d="M 125,68 Z" fill="black" /><path d="M 123,68 Z" fill="black" /><path d="M 71,67 Z" fill="black" /><path d="M 132,66 L 132,67 Z" fill="black" /><path d="M 144,65 Z" fill="black" /><path d="M 135,68 L 136,69 L 144,69 L 147,66 L 147,65 L 145,67 L 144,67 L 143,68 L 137,68 L 135,66 L 135,65 Z" fill="black" /><path d="M 124,65 L 124,66 Z" fill="black" /><path d="M 191,64 L 193,64 L 194,65 L 194,66 L 194,64 Z" fill="black" /><path d="M 122,64 L 121,65 L 121,66 L 119,68 L 117,68 L 116,69 L 115,69 L 114,68 L 112,68 L 110,66 L 109,66 L 109,67 L 112,69 L 120,69 L 121,68 L 121,65 Z" fill="black" /><path d="M 68,64 L 71,64 Z" fill="black" /><path d="M 50,64 L 51,65 L 52,64 Z" fill="black" /><path d="M 124,62 L 125,62 Z" fill="black" /><path d="M 131,61 Z" fill="black" /><path d="M 111,59 Z" fill="black" /><path d="M 132,58 Z" fill="black" /><path d="M 135,59 L 137,59 L 138,58 L 140,58 L 141,57 L 148,57 L 147,57 L 146,56 L 140,56 L 139,57 L 136,57 L 135,58 Z" fill="black" /><path d="M 129,56 L 129,58 L 128,59 L 127,58 L 127,57 L 127,58 L 128,59 L 128,60 L 127,61 L 129,63 L 127,65 L 126,64 L 127,65 L 128,64 L 129,65 L 129,66 L 130,67 L 130,70 L 130,66 L 128,64 L 129,63 L 128,62 L 128,60 L 129,59 Z" fill="black" /><path d="M 108,57 L 109,57 L 110,56 L 112,56 L 113,57 L 116,57 L 117,58 L 119,58 L 120,59 L 121,58 L 122,58 L 121,57 L 118,57 L 117,56 L 109,56 Z" fill="black" /><path d="M 171,54 L 159,59 L 159,73 L 152,87 L 170,58 L 170,66 L 163,79 L 171,76 L 173,64 Z" fill="black" /><path d="M 84,54 L 84,76 L 93,78 L 91,78 L 90,76 L 92,75 L 87,72 L 85,60 L 87,59 L 101,80 L 96,72 L 97,60 Z" fill="black" /><path d="M 80,51 Z" fill="black" /><path d="M 140,50 Z" fill="black" /><path d="M 119,50 Z" fill="black" /><path d="M 88,49 Z" fill="black" /><path d="M 173,48 L 173,49 L 175,49 L 174,49 Z" fill="black" /><path d="M 137,48 L 136,49 Z" fill="black" /><path d="M 90,48 L 91,48 Z" fill="black" /><path d="M 139,47 Z" fill="black" /><path d="M 122,47 Z" fill="black" /><path d="M 119,47 Z" fill="black" /><path d="M 136,46 L 135,47 Z" fill="black" /><path d="M 158,26 Z" fill="black" /><path d="M 97,24 Z" fill="black" /><path d="M 98,20 L 98,21 Z" fill="black" /><path d="M 159,19 L 159,20 Z" fill="black" /><path d="M 96,18 L 96,19 Z" fill="black" /><path d="M 194,16 L 194,23 L 195,23 L 195,16 Z" fill="black" /><path d="M 98,16 L 98,17 Z" fill="black" /><path d="M 156,15 L 157,15 Z" fill="black" /><path d="M 143,1 Z" fill="black" /><path d="M 122,0 L 98,38 L 105,99 L 109,46 L 145,42 L 154,130 L 111,141 L 107,105 L 65,119 L 98,104 L 88,80 L 96,100 L 59,119 L 143,142 L 196,118 L 160,101 L 170,80 L 157,104 L 192,117 L 148,107 L 158,41 Z" fill="black" /></svg>