<?xml version="1.0" encoding="utf-8" ?>
<svg baseProfile="full" height="143" version="1.1" width="256" xmlns="http://www.w3.org/2000/svg" xmlns:ev="http://www.w3.org/2001/xml-events" xmlns:xlink="http://www.w3.org/1999/xlink"><defs /><path d="M 127,136 Z" fill="black" /><path d="M 179,135 Z" fill="black" /><path d="M 76,135 Z" fill="black" /><path d="M 181,134 L 182,135 L 183,135 L 182,134 Z" fill="black" /><path d="M 122,134 L 122,135 L 123,135 Z" fill="black" /><path d="M 73,134 L 72,135 L 73,134 L 74,134 Z" fill="black" /><path d="M 111,133 Z" fill="black" /><path d="M 146,130 Z" fill="black" /><path d="M 111,130 Z" fill="black" /><path d="M 108,128 L 107,129 Z" fill="black" /><path d="M 196,127 Z" fill="black" /><path d="M 148,127 Z" fill="black" /><path d="M 59,127 Z" fill="black" /><path d="M 199,126 Z" fill="black" /><path d="M 117,125 L 119,127 L 118,128 L 117,128 L 116,127 L 114,127 L 115,127 L 116,128 L 116,129 L 118,129 L 120,131 L 124,131 L 125,132 L 126,132 L 128,134 L 127,133 L 127,132 L 128,131 L 131,131 L 132,130 L 133,131 L 133,132 L 132,133 L 131,133 L 133,133 L 134,132 L 135,132 L 135,131 L 136,130 L 137,130 L 138,129 L 140,129 L 141,128 L 144,128 L 143,128 L 142,127 L 141,128 L 140,127 L 140,125 L 136,125 L 135,126 L 134,126 L 133,127 L 132,127 L 131,128 L 130,128 L 129,129 L 128,129 L 127,128 L 125,128 L 124,127 L 122,127 L 121,126 L 119,126 L 118,125 Z" fill="black" /><path d="M 130,120 L 132,120 Z" fill="black" /><path d="M 158,114 Z" fill="black" /><path d="M 145,100 Z" fill="black" /><path d="M 140,100 L 140,105 L 139,106 L 139,109 L 138,110 L 138,115 L 139,116 L 139,118 L 140,119 L 140,120 L 141,121 L 141,122 L 142,123 L 143,122 L 144,122 L 145,121 L 149,121 L 150,120 L 151,120 L 151,119 L 150,118 L 149,118 L 148,117 L 147,117 L 144,114 L 143,114 L 142,113 L 142,112 L 141,111 L 141,110 L 140,109 L 140,105 L 141,104 L 140,103 Z" fill="black" /><path d="M 90,99 Z" fill="black" /><path d="M 166,97 L 167,98 L 168,98 L 167,97 Z" fill="black" /><path d="M 139,95 Z" fill="black" /><path d="M 117,95 L 117,96 L 116,97 L 116,101 L 115,102 L 115,106 L 116,107 L 116,109 L 115,110 L 115,113 L 113,115 L 111,115 L 109,117 L 108,117 L 107,118 L 106,118 L 105,119 L 104,119 L 103,120 L 102,120 L 108,120 L 109,121 L 111,121 L 112,122 L 113,122 L 114,123 L 115,123 L 116,122 L 116,121 L 117,120 L 117,118 L 118,117 L 118,114 L 119,113 L 119,112 L 118,111 L 118,109 L 117,108 L 117,106 L 116,105 L 116,100 L 117,99 L 116,98 L 117,97 Z" fill="black" /><path d="M 87,94 L 85,96 L 83,96 L 82,97 L 81,97 L 80,98 L 81,99 L 84,99 L 85,98 L 85,97 L 86,96 L 86,95 Z" fill="black" /><path d="M 195,93 L 195,94 Z" fill="black" /><path d="M 170,90 Z" fill="black" /><path d="M 84,87 L 84,88 L 83,89 L 82,89 L 82,91 L 81,92 L 80,92 L 80,93 L 79,94 L 77,94 L 76,95 L 75,95 L 74,96 L 74,97 L 75,97 L 76,98 L 77,97 L 78,97 L 80,95 L 80,94 L 83,91 L 83,90 L 84,89 Z" fill="black" /><path d="M 173,85 L 173,88 L 175,90 L 175,91 L 176,92 L 176,93 L 177,94 L 177,95 L 176,96 L 175,96 L 174,95 L 172,95 L 170,93 L 170,95 L 171,96 L 171,97 L 172,98 L 174,98 L 175,99 L 176,98 L 176,96 L 177,95 L 178,95 L 179,96 L 179,97 L 181,97 L 182,96 L 182,95 L 181,94 L 180,94 L 178,92 L 177,92 L 175,90 L 175,87 L 174,86 L 174,85 Z" fill="black" /><path d="M 125,84 L 125,86 L 124,87 L 124,88 L 123,89 L 123,90 L 129,90 L 130,91 L 130,92 L 131,93 L 131,95 L 130,96 L 129,95 L 128,95 L 127,94 L 127,93 L 124,93 L 123,92 L 122,92 L 121,93 L 120,93 L 120,94 L 122,96 L 122,98 L 123,99 L 123,100 L 125,102 L 125,103 L 126,104 L 126,107 L 127,108 L 127,109 L 128,110 L 128,109 L 129,108 L 129,106 L 130,105 L 130,102 L 132,100 L 132,99 L 133,98 L 133,97 L 134,96 L 134,95 L 135,94 L 135,92 L 132,92 L 131,91 L 131,90 L 133,88 L 132,88 L 129,85 L 129,84 L 129,86 L 128,87 L 127,87 L 126,86 L 126,84 Z" fill="black" /><path d="M 103,84 Z" fill="black" /><path d="M 143,82 L 142,83 L 137,83 L 137,86 L 136,87 L 136,88 L 139,88 L 141,90 L 141,91 L 142,92 L 142,95 L 143,96 L 143,97 L 144,98 L 145,97 L 145,95 L 144,94 L 144,92 L 142,90 L 142,89 L 141,88 L 142,87 L 142,85 L 144,83 L 144,82 Z" fill="black" /><path d="M 132,82 L 133,82 Z" fill="black" /><path d="M 127,82 L 128,82 Z" fill="black" /><path d="M 177,81 L 176,82 L 176,85 L 177,86 L 177,87 L 178,87 L 184,93 L 184,94 L 185,94 L 186,95 L 187,94 L 189,94 L 189,91 L 188,90 L 183,90 L 180,87 L 180,84 L 179,83 L 179,82 L 178,81 Z" fill="black" /><path d="M 125,81 L 124,82 Z" fill="black" /><path d="M 79,81 L 78,82 L 78,84 L 77,85 L 77,88 L 76,89 L 75,89 L 74,90 L 71,90 L 70,91 L 68,91 L 68,94 L 69,95 L 72,95 L 80,87 L 80,86 L 81,85 L 81,82 L 80,81 Z" fill="black" /><path d="M 123,79 L 122,80 L 123,80 Z" fill="black" /><path d="M 134,77 L 133,78 L 125,78 L 126,79 L 130,79 L 131,78 L 133,78 L 134,77 L 135,77 Z" fill="black" /><path d="M 124,76 L 125,76 Z" fill="black" /><path d="M 182,75 L 181,76 L 181,78 L 180,79 L 181,80 L 181,81 L 184,84 L 184,85 L 185,85 L 187,87 L 189,87 L 190,88 L 192,88 L 194,86 L 194,84 L 193,83 L 190,83 L 189,84 L 186,84 L 184,82 L 184,75 Z" fill="black" /><path d="M 73,75 L 73,77 L 72,78 L 73,79 L 73,83 L 72,84 L 71,84 L 70,85 L 69,84 L 65,84 L 64,83 L 64,88 L 68,88 L 69,87 L 71,87 L 75,83 L 75,82 L 76,81 L 76,80 L 77,79 L 76,78 L 76,76 L 75,76 L 74,75 Z" fill="black" /><path d="M 122,74 L 121,75 L 122,75 L 123,74 L 125,74 Z" fill="black" /><path d="M 129,72 Z" fill="black" /><path d="M 75,72 Z" fill="black" /><path d="M 192,71 L 191,72 L 190,72 L 189,73 L 189,74 L 188,75 L 188,80 L 189,79 L 191,79 L 192,78 L 193,78 L 194,77 L 194,76 L 195,75 L 195,72 L 194,72 L 193,71 Z" fill="black" /><path d="M 127,71 L 127,72 Z" fill="black" /><path d="M 124,71 Z" fill="black" /><path d="M 64,71 L 63,72 L 63,78 L 64,79 L 65,79 L 66,80 L 69,80 L 69,77 L 68,76 L 68,74 L 67,73 L 67,72 L 66,72 L 65,71 Z" fill="black" /><path d="M 133,70 Z" fill="black" /><path d="M 122,70 Z" fill="black" /><path d="M 127,68 L 127,69 L 128,69 L 128,68 Z" fill="black" /><path d="M 125,68 L 125,69 Z" fill="black" /><path d="M 123,68 Z" fill="black" /><path d="M 132,66 L 132,67 Z" fill="black" /><path d="M 109,66 L 109,67 L 110,68 L 111,68 L 112,69 L 120,69 L 121,68 L 121,66 L 119,68 L 117,68 L 116,69 L 115,69 L 114,68 L 112,68 L 110,66 Z" fill="black" /><path d="M 135,65 L 135,68 L 136,69 L 144,69 L 147,66 L 147,65 L 146,66 L 145,66 L 144,65 L 145,66 L 143,68 L 137,68 L 135,66 Z" fill="black" /><path d="M 124,65 L 124,66 Z" fill="black" /><path d="M 192,64 L 194,66 L 195,66 L 194,66 L 193,65 L 194,64 Z" fill="black" /><path d="M 68,64 L 71,64 Z" fill="black" /><path d="M 60,64 L 60,65 Z" fill="black" /><path d="M 124,62 L 125,62 Z" fill="black" /><path d="M 131,60 L 130,61 L 131,61 Z" fill="black" /><path d="M 125,59 Z" fill="black" /><path d="M 111,59 Z" fill="black" /><path d="M 132,58 Z" fill="black" /><path d="M 140,56 L 139,57 L 136,57 L 135,58 L 135,59 L 137,59 L 138,58 L 140,58 L 141,57 L 148,57 L 147,57 L 146,56 Z" fill="black" /><path d="M 129,56 L 129,58 L 128,59 L 127,58 L 127,57 L 127,58 L 128,59 L 128,60 L 127,61 L 129,63 L 127,65 L 126,64 L 127,65 L 128,64 L 129,65 L 129,66 L 130,67 L 130,70 L 130,66 L 128,64 L 129,63 L 128,62 L 128,60 L 129,59 Z" fill="black" /><path d="M 109,56 L 108,57 L 110,57 L 111,56 L 112,56 L 113,57 L 116,57 L 117,58 L 119,58 L 120,59 L 121,58 L 122,58 L 121,57 L 118,57 L 117,56 Z" fill="black" /><path d="M 170,54 L 169,55 L 167,55 L 166,56 L 164,56 L 163,57 L 162,57 L 161,58 L 160,58 L 159,59 L 159,65 L 158,66 L 158,68 L 159,69 L 159,71 L 160,72 L 158,74 L 158,75 L 157,76 L 157,77 L 156,78 L 156,79 L 155,80 L 155,81 L 154,82 L 154,83 L 153,84 L 153,85 L 152,86 L 152,87 L 152,86 L 154,84 L 154,83 L 156,81 L 156,80 L 157,79 L 157,78 L 159,76 L 159,75 L 161,73 L 161,72 L 162,71 L 162,70 L 163,69 L 163,68 L 165,66 L 165,65 L 166,64 L 166,63 L 167,62 L 167,61 L 170,58 L 171,59 L 171,60 L 170,61 L 170,66 L 169,67 L 169,69 L 168,70 L 168,72 L 167,73 L 166,73 L 167,74 L 166,75 L 164,75 L 165,76 L 165,77 L 163,79 L 164,79 L 165,78 L 167,78 L 168,77 L 169,77 L 170,76 L 171,76 L 171,75 L 172,74 L 172,66 L 173,65 L 173,63 L 172,62 L 172,56 L 171,55 L 171,54 Z" fill="black" /><path d="M 84,54 L 84,56 L 83,57 L 83,72 L 84,73 L 84,76 L 86,76 L 88,78 L 93,78 L 91,78 L 89,76 L 90,75 L 92,75 L 90,75 L 89,74 L 89,73 L 88,72 L 88,71 L 87,70 L 87,69 L 86,68 L 86,64 L 85,63 L 85,60 L 86,59 L 87,59 L 88,60 L 88,61 L 91,64 L 91,65 L 92,66 L 92,67 L 93,68 L 93,69 L 94,70 L 94,71 L 97,74 L 97,75 L 100,78 L 100,79 L 101,80 L 100,79 L 100,78 L 99,77 L 99,76 L 98,75 L 98,73 L 97,73 L 96,72 L 96,63 L 97,62 L 97,60 L 95,58 L 94,58 L 93,57 L 92,57 L 91,56 L 90,56 L 89,55 L 86,55 L 85,54 Z" fill="black" /><path d="M 80,51 Z" fill="black" /><path d="M 140,50 L 142,50 Z" fill="black" /><path d="M 118,50 L 119,50 Z" fill="black" /><path d="M 136,49 Z" fill="black" /><path d="M 88,49 Z" fill="black" /><path d="M 85,49 Z" fill="black" /><path d="M 173,48 L 174,49 L 175,49 L 174,49 Z" fill="black" /><path d="M 164,48 Z" fill="black" /><path d="M 90,48 L 91,48 Z" fill="black" /><path d="M 80,48 L 82,48 Z" fill="black" /><path d="M 139,47 Z" fill="black" /><path d="M 121,47 L 122,47 Z" fill="black" /><path d="M 119,47 Z" fill="black" /><path d="M 136,46 L 135,47 Z" fill="black" /><path d="M 158,26 Z" fill="black" /><path d="M 97,24 L 96,25 L 96,26 L 96,25 Z" fill="black" /><path d="M 98,20 L 98,22 Z" fill="black" /><path d="M 96,18 L 96,19 Z" fill="black" /><path d="M 194,16 L 194,23 L 195,23 L 195,16 Z" fill="black" /><path d="M 98,16 L 98,17 Z" fill="black" /><path d="M 142,1 L 143,1 Z" fill="black" /><path d="M 122,0 L 121,1 L 120,1 L 119,2 L 118,2 L 113,7 L 113,8 L 104,17 L 104,23 L 106,25 L 106,26 L 101,31 L 101,32 L 100,33 L 100,34 L 99,35 L 99,37 L 98,38 L 98,43 L 97,44 L 97,47 L 98,48 L 98,54 L 99,55 L 99,58 L 100,58 L 101,59 L 101,74 L 102,75 L 102,77 L 103,78 L 103,79 L 104,80 L 104,82 L 105,83 L 105,85 L 106,86 L 106,93 L 105,94 L 105,99 L 106,100 L 106,101 L 110,105 L 111,105 L 111,104 L 110,103 L 110,102 L 107,99 L 107,97 L 108,96 L 108,95 L 109,94 L 110,94 L 111,95 L 111,97 L 111,96 L 112,95 L 112,94 L 113,93 L 113,91 L 116,88 L 119,88 L 119,86 L 118,85 L 118,83 L 116,83 L 115,82 L 112,82 L 111,81 L 111,82 L 113,84 L 113,87 L 114,88 L 113,89 L 113,90 L 112,91 L 112,92 L 111,93 L 110,93 L 109,92 L 109,91 L 110,90 L 110,84 L 109,83 L 109,80 L 108,79 L 108,78 L 107,77 L 107,76 L 106,75 L 106,73 L 105,72 L 105,54 L 106,53 L 106,51 L 108,49 L 108,48 L 109,47 L 109,46 L 114,41 L 116,41 L 117,40 L 119,40 L 120,41 L 125,41 L 126,42 L 129,42 L 130,41 L 133,41 L 134,40 L 141,40 L 142,41 L 143,41 L 148,46 L 148,47 L 149,48 L 149,51 L 150,52 L 150,58 L 151,59 L 151,71 L 150,72 L 150,74 L 149,75 L 149,77 L 148,78 L 148,79 L 147,80 L 147,81 L 146,82 L 146,86 L 145,87 L 145,89 L 146,90 L 146,93 L 147,94 L 147,95 L 148,96 L 148,100 L 146,102 L 146,103 L 144,105 L 144,106 L 145,106 L 146,105 L 147,105 L 148,106 L 147,107 L 147,108 L 148,108 L 149,109 L 149,110 L 150,110 L 155,115 L 155,117 L 156,118 L 156,119 L 157,120 L 157,124 L 156,125 L 155,125 L 155,128 L 154,129 L 154,130 L 153,131 L 152,131 L 151,132 L 150,132 L 149,131 L 148,131 L 149,132 L 149,133 L 148,134 L 147,134 L 146,133 L 147,134 L 147,135 L 146,136 L 145,136 L 144,135 L 145,136 L 144,137 L 140,137 L 139,138 L 134,138 L 133,137 L 131,137 L 133,137 L 134,138 L 133,139 L 130,139 L 129,138 L 124,138 L 123,137 L 122,138 L 120,138 L 124,138 L 125,139 L 124,140 L 120,140 L 119,141 L 117,141 L 116,142 L 113,142 L 112,141 L 110,141 L 109,140 L 110,139 L 111,139 L 111,138 L 110,138 L 109,137 L 110,136 L 111,136 L 111,135 L 108,135 L 106,133 L 107,132 L 109,132 L 107,132 L 106,133 L 104,133 L 100,129 L 100,128 L 99,127 L 99,126 L 100,125 L 100,124 L 99,124 L 99,125 L 98,126 L 97,126 L 96,125 L 96,120 L 98,118 L 98,117 L 101,114 L 102,114 L 107,109 L 108,109 L 107,108 L 108,107 L 108,106 L 107,105 L 106,105 L 105,106 L 105,107 L 104,108 L 101,108 L 98,111 L 98,112 L 97,113 L 96,112 L 96,113 L 99,113 L 100,114 L 99,115 L 96,115 L 97,115 L 98,116 L 96,118 L 92,118 L 91,119 L 65,119 L 64,118 L 64,117 L 65,116 L 65,115 L 66,114 L 70,114 L 71,113 L 81,113 L 82,112 L 87,112 L 88,113 L 89,113 L 88,113 L 87,112 L 85,112 L 84,111 L 84,108 L 85,107 L 87,109 L 87,108 L 88,107 L 89,107 L 90,106 L 95,106 L 96,105 L 98,105 L 98,99 L 99,98 L 99,95 L 98,96 L 96,94 L 95,94 L 94,93 L 94,90 L 95,89 L 95,88 L 95,89 L 94,90 L 91,87 L 92,86 L 95,86 L 91,86 L 90,85 L 91,84 L 94,84 L 94,83 L 93,83 L 92,82 L 93,81 L 94,81 L 94,80 L 93,80 L 91,82 L 90,81 L 89,81 L 88,80 L 85,80 L 85,81 L 86,82 L 86,84 L 87,85 L 87,87 L 88,88 L 88,91 L 91,94 L 91,95 L 92,96 L 92,97 L 94,99 L 95,99 L 96,100 L 95,101 L 94,101 L 93,102 L 88,102 L 87,103 L 83,103 L 82,104 L 80,104 L 79,105 L 78,105 L 77,106 L 79,108 L 80,108 L 82,110 L 82,111 L 81,112 L 80,112 L 77,109 L 76,109 L 74,107 L 72,107 L 70,109 L 69,109 L 67,111 L 66,111 L 65,112 L 64,112 L 64,113 L 60,117 L 59,117 L 59,119 L 60,119 L 63,122 L 64,122 L 65,123 L 66,123 L 68,125 L 69,125 L 70,126 L 72,126 L 73,127 L 76,127 L 77,128 L 79,128 L 84,123 L 85,123 L 86,122 L 87,123 L 87,124 L 82,129 L 82,130 L 87,130 L 88,131 L 102,131 L 103,132 L 103,133 L 105,135 L 107,135 L 108,136 L 108,137 L 107,138 L 107,140 L 109,142 L 119,142 L 120,141 L 126,141 L 127,140 L 131,140 L 132,141 L 139,141 L 140,142 L 143,142 L 144,141 L 145,141 L 146,140 L 147,140 L 147,137 L 149,135 L 150,135 L 152,133 L 151,132 L 152,131 L 167,131 L 168,130 L 173,130 L 173,128 L 172,128 L 169,125 L 169,124 L 168,123 L 169,122 L 170,122 L 176,128 L 178,128 L 179,127 L 182,127 L 183,126 L 185,126 L 186,125 L 187,125 L 188,124 L 189,124 L 190,123 L 191,123 L 195,119 L 196,119 L 196,117 L 195,117 L 194,116 L 194,115 L 191,112 L 190,112 L 188,110 L 187,110 L 186,109 L 185,109 L 183,107 L 182,107 L 181,108 L 180,108 L 178,110 L 177,110 L 175,112 L 173,112 L 172,111 L 172,110 L 173,109 L 174,109 L 175,108 L 176,108 L 178,106 L 177,105 L 176,105 L 175,104 L 173,104 L 172,103 L 169,103 L 168,102 L 161,102 L 160,101 L 160,100 L 164,96 L 164,95 L 165,94 L 165,93 L 166,92 L 166,91 L 167,90 L 167,89 L 168,88 L 168,86 L 169,85 L 169,83 L 170,82 L 170,80 L 168,80 L 167,81 L 162,81 L 163,81 L 164,82 L 162,84 L 164,84 L 165,85 L 164,86 L 160,86 L 159,87 L 160,86 L 163,86 L 164,87 L 163,88 L 161,88 L 160,89 L 160,90 L 160,89 L 161,88 L 162,88 L 163,89 L 162,90 L 162,91 L 158,95 L 158,103 L 157,104 L 158,105 L 160,105 L 161,106 L 165,106 L 166,107 L 167,107 L 168,108 L 168,109 L 170,107 L 171,107 L 172,108 L 170,110 L 171,111 L 172,111 L 173,112 L 175,112 L 176,113 L 183,113 L 184,112 L 185,113 L 187,113 L 188,114 L 188,115 L 190,115 L 192,117 L 191,118 L 168,118 L 167,117 L 159,117 L 158,116 L 156,116 L 155,115 L 155,114 L 154,113 L 155,112 L 156,112 L 157,111 L 154,108 L 152,108 L 151,107 L 150,108 L 149,108 L 148,107 L 148,106 L 147,105 L 147,104 L 150,101 L 150,99 L 151,98 L 151,97 L 150,96 L 150,92 L 149,91 L 150,90 L 150,84 L 151,83 L 151,82 L 152,81 L 152,80 L 153,79 L 153,78 L 154,77 L 154,74 L 155,73 L 155,72 L 154,71 L 155,70 L 155,69 L 154,68 L 154,60 L 156,58 L 157,58 L 157,54 L 158,53 L 158,41 L 157,40 L 157,37 L 156,36 L 156,35 L 155,34 L 155,32 L 153,30 L 153,29 L 149,25 L 148,25 L 147,24 L 146,24 L 144,22 L 144,21 L 145,20 L 145,19 L 146,18 L 146,13 L 145,12 L 145,11 L 143,9 L 143,8 L 142,8 L 141,7 L 136,7 L 133,4 L 132,4 L 130,2 L 129,2 L 128,1 L 126,1 L 125,0 Z" fill="black" /></svg>