<?xml version="1.0" encoding="utf-8" ?>
<svg baseProfile="full" height="2238" version="1.1" viewBox="0 0 1785 2238" width="1785" xmlns="http://www.w3.org/2000/svg" xmlns:ev="http://www.w3.org/2001/xml-events" xmlns:xlink="http://www.w3.org/1999/xlink"><defs /><path d="M 1099,59 L 1098,60 L 1095,60 L 1094,61 L 1093,61 L 1092,62 L 1090,62 L 1089,63 L 1088,63 L 1087,64 L 1085,64 L 1084,65 L 1083,65 L 1082,66 L 1081,66 L 1080,67 L 1079,67 L 1077,69 L 1076,69 L 1074,71 L 1073,71 L 1070,74 L 1069,74 L 1053,90 L 1053,91 L 1050,94 L 1050,95 L 1048,97 L 1048,98 L 1046,100 L 1046,101 L 1045,102 L 1045,103 L 1043,105 L 1043,106 L 1042,107 L 1042,108 L 1041,109 L 1041,110 L 1040,111 L 1040,112 L 1039,113 L 1039,114 L 1038,115 L 1038,116 L 1037,117 L 1037,118 L 1036,119 L 1036,120 L 1035,121 L 1035,122 L 1034,123 L 1034,124 L 1033,125 L 1033,126 L 1032,127 L 1032,128 L 1031,129 L 1031,130 L 1030,131 L 1030,132 L 1029,133 L 1029,134 L 1028,135 L 1028,136 L 1027,137 L 1027,138 L 1026,139 L 1026,140 L 1025,141 L 1025,142 L 1024,143 L 1024,144 L 1023,145 L 1023,146 L 1022,147 L 1022,148 L 1021,149 L 1021,150 L 1020,151 L 1020,152 L 1019,153 L 1019,154 L 1018,155 L 1018,156 L 1017,157 L 1017,158 L 1016,159 L 1016,160 L 1015,161 L 1015,162 L 1014,163 L 1014,164 L 1013,165 L 1013,166 L 1012,167 L 1012,168 L 1011,169 L 1011,170 L 1010,171 L 1010,172 L 1009,173 L 1009,174 L 1008,175 L 1008,176 L 1007,177 L 1007,178 L 1006,179 L 1006,180 L 1005,181 L 1005,182 L 1004,183 L 1004,184 L 1003,185 L 1003,186 L 1002,187 L 1002,188 L 1001,189 L 1001,190 L 1000,191 L 998,191 L 997,192 L 991,192 L 990,193 L 986,193 L 985,194 L 981,194 L 980,195 L 976,195 L 975,196 L 972,196 L 971,197 L 967,197 L 966,198 L 962,198 L 961,199 L 957,199 L 956,200 L 952,200 L 951,201 L 947,201 L 946,202 L 942,202 L 941,203 L 937,203 L 936,204 L 933,204 L 932,205 L 928,205 L 927,206 L 926,206 L 925,205 L 935,195 L 935,194 L 947,182 L 947,181 L 957,171 L 957,170 L 964,163 L 964,162 L 969,157 L 969,156 L 973,152 L 973,151 L 977,147 L 977,146 L 980,143 L 980,142 L 983,139 L 983,138 L 985,136 L 985,135 L 987,133 L 987,132 L 989,130 L 989,129 L 991,127 L 991,126 L 992,125 L 992,124 L 994,122 L 994,121 L 995,120 L 995,119 L 997,117 L 997,116 L 998,115 L 998,114 L 999,113 L 999,112 L 1000,111 L 1000,110 L 1001,109 L 1000,109 L 999,110 L 998,110 L 995,113 L 994,113 L 991,116 L 990,116 L 986,120 L 985,120 L 981,124 L 980,124 L 977,127 L 976,127 L 972,131 L 971,131 L 967,135 L 966,135 L 963,138 L 962,138 L 958,142 L 957,142 L 953,146 L 952,146 L 949,149 L 948,149 L 944,153 L 943,153 L 940,156 L 939,156 L 936,159 L 935,159 L 932,162 L 931,162 L 928,165 L 927,165 L 924,168 L 923,168 L 920,171 L 919,171 L 916,174 L 915,174 L 912,177 L 911,177 L 909,179 L 908,179 L 905,182 L 904,182 L 902,184 L 901,184 L 899,186 L 898,186 L 896,188 L 895,188 L 893,190 L 892,190 L 890,192 L 889,192 L 887,194 L 886,194 L 884,196 L 883,196 L 881,198 L 880,198 L 878,200 L 877,200 L 875,202 L 874,202 L 873,203 L 872,203 L 870,205 L 869,205 L 868,206 L 867,206 L 865,208 L 864,208 L 863,209 L 862,209 L 860,211 L 859,211 L 858,212 L 857,212 L 856,213 L 855,213 L 854,214 L 853,214 L 851,216 L 850,216 L 849,217 L 848,217 L 847,218 L 846,218 L 845,219 L 844,219 L 843,220 L 842,220 L 841,221 L 840,221 L 839,222 L 838,222 L 837,223 L 836,223 L 835,224 L 834,224 L 833,225 L 832,225 L 831,226 L 830,226 L 829,227 L 828,227 L 827,228 L 826,228 L 825,229 L 823,229 L 822,230 L 821,230 L 820,231 L 819,231 L 818,232 L 817,232 L 816,233 L 814,233 L 813,234 L 812,234 L 811,235 L 810,235 L 809,236 L 807,236 L 806,237 L 805,237 L 804,238 L 802,238 L 801,239 L 800,239 L 799,240 L 797,240 L 796,241 L 794,241 L 793,242 L 791,242 L 790,243 L 789,243 L 788,244 L 785,244 L 784,245 L 782,245 L 781,246 L 779,246 L 778,247 L 775,247 L 774,248 L 771,248 L 770,249 L 767,249 L 766,250 L 763,250 L 762,251 L 758,251 L 757,252 L 754,252 L 753,253 L 750,253 L 749,254 L 745,254 L 744,255 L 741,255 L 740,254 L 739,254 L 737,252 L 736,252 L 728,244 L 727,244 L 724,241 L 723,241 L 719,237 L 718,237 L 714,233 L 713,233 L 709,229 L 708,229 L 704,225 L 703,225 L 700,222 L 699,222 L 695,218 L 694,218 L 690,214 L 689,214 L 686,211 L 685,211 L 681,207 L 680,207 L 677,204 L 676,204 L 673,201 L 672,201 L 669,198 L 668,198 L 665,195 L 664,195 L 661,192 L 660,192 L 657,189 L 656,189 L 653,186 L 652,186 L 650,184 L 649,184 L 646,181 L 645,181 L 643,179 L 642,179 L 639,176 L 638,176 L 636,174 L 635,174 L 633,172 L 632,172 L 630,170 L 629,170 L 627,168 L 626,168 L 623,165 L 622,165 L 620,163 L 619,163 L 617,161 L 616,161 L 614,159 L 613,159 L 612,158 L 611,158 L 609,156 L 608,156 L 606,154 L 605,154 L 603,152 L 602,152 L 601,151 L 600,151 L 598,149 L 597,149 L 595,147 L 594,147 L 593,146 L 592,146 L 590,144 L 589,144 L 588,143 L 587,143 L 586,142 L 585,142 L 583,140 L 582,140 L 581,139 L 580,139 L 579,138 L 578,138 L 576,136 L 575,136 L 574,135 L 573,135 L 572,134 L 571,134 L 570,133 L 569,133 L 568,132 L 567,132 L 566,131 L 565,131 L 564,130 L 563,130 L 562,129 L 561,129 L 560,128 L 559,128 L 558,127 L 557,127 L 556,126 L 554,126 L 553,125 L 552,125 L 551,124 L 550,124 L 549,123 L 548,123 L 547,122 L 545,122 L 544,121 L 543,121 L 542,120 L 540,120 L 539,119 L 537,119 L 536,118 L 535,118 L 534,117 L 532,117 L 531,116 L 529,116 L 528,115 L 525,115 L 524,114 L 522,114 L 521,113 L 518,113 L 517,112 L 514,112 L 513,111 L 509,111 L 508,110 L 503,110 L 502,109 L 496,109 L 495,108 L 484,108 L 483,107 L 466,107 L 465,108 L 453,108 L 452,109 L 446,109 L 445,110 L 440,110 L 439,111 L 435,111 L 434,112 L 431,112 L 430,113 L 427,113 L 426,114 L 425,114 L 424,115 L 422,115 L 421,116 L 420,116 L 419,117 L 418,117 L 417,118 L 416,118 L 415,119 L 414,119 L 412,121 L 411,121 L 409,123 L 408,123 L 406,125 L 405,125 L 401,129 L 400,129 L 395,134 L 394,134 L 388,140 L 387,140 L 377,150 L 377,151 L 372,156 L 372,157 L 369,160 L 369,161 L 367,163 L 367,164 L 364,167 L 364,168 L 362,170 L 362,171 L 360,173 L 360,174 L 359,175 L 359,176 L 357,178 L 357,179 L 355,181 L 355,182 L 353,184 L 353,185 L 352,186 L 352,187 L 350,189 L 350,190 L 349,191 L 349,192 L 348,193 L 348,194 L 347,195 L 347,196 L 346,197 L 346,198 L 345,199 L 345,200 L 344,201 L 344,202 L 343,203 L 343,204 L 342,205 L 342,207 L 341,208 L 341,209 L 340,210 L 340,211 L 339,212 L 339,214 L 338,215 L 338,217 L 337,218 L 337,219 L 336,220 L 336,222 L 335,223 L 335,225 L 334,226 L 334,228 L 333,229 L 333,232 L 332,233 L 332,235 L 331,236 L 331,239 L 330,240 L 330,243 L 329,244 L 329,247 L 328,248 L 328,251 L 327,252 L 327,255 L 326,256 L 326,260 L 325,261 L 325,265 L 324,266 L 324,271 L 323,272 L 323,277 L 322,278 L 322,284 L 321,285 L 321,291 L 320,292 L 320,298 L 319,299 L 319,307 L 318,308 L 318,318 L 317,319 L 317,331 L 316,332 L 316,362 L 315,363 L 315,367 L 316,368 L 316,397 L 317,398 L 317,410 L 318,411 L 318,420 L 319,421 L 319,428 L 320,429 L 320,436 L 321,437 L 321,442 L 322,443 L 322,448 L 323,449 L 323,454 L 324,455 L 324,459 L 325,460 L 325,464 L 326,465 L 326,469 L 327,470 L 327,473 L 328,474 L 328,477 L 329,478 L 329,481 L 330,482 L 330,485 L 331,486 L 331,489 L 332,490 L 332,493 L 333,494 L 333,496 L 334,497 L 334,500 L 335,501 L 335,503 L 336,504 L 336,506 L 337,507 L 337,509 L 338,510 L 338,512 L 339,513 L 339,515 L 340,516 L 340,519 L 341,520 L 341,521 L 342,522 L 342,524 L 343,525 L 343,527 L 344,528 L 344,530 L 345,531 L 345,533 L 346,534 L 346,536 L 347,537 L 347,538 L 348,539 L 348,541 L 349,542 L 349,544 L 350,545 L 350,546 L 351,547 L 351,549 L 352,550 L 352,551 L 353,552 L 353,554 L 354,555 L 354,556 L 355,557 L 355,559 L 356,560 L 356,561 L 357,562 L 357,564 L 358,565 L 358,566 L 359,567 L 359,568 L 360,569 L 360,571 L 361,572 L 361,573 L 362,574 L 362,575 L 363,576 L 363,577 L 364,578 L 364,580 L 365,581 L 365,582 L 366,583 L 366,584 L 367,585 L 367,586 L 368,587 L 368,588 L 369,589 L 369,591 L 370,592 L 370,593 L 371,594 L 371,595 L 372,596 L 372,597 L 373,598 L 373,599 L 374,600 L 374,601 L 375,602 L 375,603 L 376,604 L 376,605 L 377,606 L 377,607 L 378,608 L 378,609 L 379,610 L 379,611 L 380,612 L 380,613 L 381,614 L 381,615 L 382,616 L 382,617 L 383,618 L 383,619 L 384,620 L 384,621 L 385,622 L 385,623 L 387,625 L 387,626 L 388,627 L 388,628 L 389,629 L 389,630 L 391,632 L 391,633 L 392,634 L 392,635 L 394,637 L 394,638 L 395,639 L 395,640 L 397,642 L 397,643 L 399,645 L 399,646 L 400,647 L 400,648 L 402,650 L 402,651 L 404,653 L 404,654 L 406,656 L 406,657 L 408,659 L 408,660 L 410,662 L 410,663 L 413,666 L 413,667 L 415,669 L 415,670 L 417,672 L 417,673 L 420,676 L 420,677 L 422,679 L 422,680 L 425,683 L 425,684 L 427,686 L 427,687 L 430,690 L 430,691 L 433,694 L 433,695 L 436,698 L 436,699 L 439,702 L 439,703 L 442,706 L 442,707 L 445,710 L 445,711 L 450,716 L 450,717 L 455,722 L 455,723 L 461,729 L 461,730 L 469,738 L 469,739 L 487,757 L 488,757 L 494,763 L 495,763 L 500,768 L 501,768 L 505,772 L 506,772 L 510,776 L 511,776 L 515,780 L 516,780 L 520,784 L 521,784 L 524,787 L 525,787 L 529,791 L 530,791 L 534,795 L 535,795 L 539,799 L 540,799 L 544,803 L 545,803 L 549,807 L 550,807 L 554,811 L 555,811 L 559,815 L 560,815 L 564,819 L 565,819 L 568,822 L 569,822 L 573,826 L 574,826 L 577,829 L 578,829 L 580,831 L 581,831 L 583,833 L 584,833 L 586,835 L 587,835 L 589,837 L 590,837 L 591,838 L 592,838 L 593,839 L 594,839 L 595,840 L 596,840 L 597,841 L 598,841 L 599,842 L 600,842 L 601,843 L 602,843 L 603,844 L 604,844 L 605,845 L 606,845 L 607,846 L 609,846 L 610,847 L 611,847 L 612,848 L 613,848 L 614,849 L 616,849 L 617,850 L 618,850 L 619,851 L 621,851 L 622,852 L 624,852 L 625,853 L 627,853 L 628,854 L 630,854 L 631,855 L 633,855 L 634,856 L 637,856 L 638,857 L 640,857 L 641,858 L 644,858 L 645,859 L 649,859 L 650,860 L 654,860 L 655,861 L 661,861 L 662,862 L 695,862 L 696,861 L 699,861 L 700,862 L 701,862 L 705,866 L 705,867 L 709,871 L 709,872 L 714,877 L 714,878 L 721,885 L 721,886 L 751,916 L 752,916 L 758,922 L 759,922 L 763,926 L 764,926 L 767,929 L 768,929 L 771,932 L 772,932 L 775,935 L 776,935 L 778,937 L 779,937 L 781,939 L 782,939 L 784,941 L 785,941 L 787,943 L 788,943 L 789,944 L 790,944 L 792,946 L 793,946 L 795,948 L 796,948 L 797,949 L 798,949 L 800,951 L 801,951 L 802,952 L 803,952 L 805,954 L 806,954 L 807,955 L 808,955 L 809,956 L 810,956 L 812,958 L 813,958 L 815,960 L 813,962 L 812,962 L 811,963 L 809,963 L 808,964 L 806,964 L 805,965 L 803,965 L 802,966 L 801,966 L 800,967 L 799,967 L 798,968 L 797,968 L 796,969 L 795,969 L 794,970 L 793,970 L 792,971 L 790,971 L 789,972 L 788,972 L 787,973 L 786,973 L 785,974 L 784,974 L 783,975 L 782,975 L 781,976 L 780,976 L 778,978 L 777,978 L 776,979 L 775,979 L 774,980 L 773,980 L 772,981 L 771,981 L 770,982 L 769,982 L 767,984 L 766,984 L 765,985 L 764,985 L 762,987 L 761,987 L 760,988 L 759,988 L 757,990 L 756,990 L 754,992 L 753,992 L 750,995 L 749,995 L 747,997 L 746,997 L 743,1000 L 742,1000 L 739,1003 L 738,1003 L 735,1006 L 734,1006 L 731,1009 L 730,1009 L 727,1012 L 726,1012 L 722,1016 L 721,1016 L 718,1019 L 717,1019 L 713,1023 L 712,1023 L 707,1028 L 706,1028 L 701,1033 L 700,1033 L 694,1039 L 693,1039 L 685,1047 L 684,1047 L 658,1073 L 657,1073 L 654,1076 L 654,1077 L 627,1104 L 627,1105 L 616,1116 L 616,1117 L 608,1125 L 608,1126 L 602,1132 L 602,1133 L 597,1138 L 597,1139 L 592,1144 L 592,1145 L 588,1149 L 588,1150 L 583,1155 L 583,1156 L 579,1160 L 579,1161 L 575,1165 L 575,1166 L 572,1169 L 572,1170 L 568,1174 L 568,1175 L 565,1178 L 565,1179 L 562,1182 L 562,1183 L 558,1187 L 558,1188 L 555,1191 L 555,1192 L 553,1194 L 553,1195 L 550,1198 L 550,1199 L 547,1202 L 547,1203 L 544,1206 L 544,1207 L 542,1209 L 542,1210 L 539,1213 L 539,1214 L 537,1216 L 537,1217 L 535,1219 L 535,1220 L 533,1222 L 533,1223 L 530,1226 L 530,1227 L 528,1229 L 528,1230 L 526,1232 L 526,1233 L 524,1235 L 524,1236 L 522,1238 L 522,1239 L 520,1241 L 520,1242 L 518,1244 L 518,1245 L 516,1247 L 516,1248 L 514,1250 L 514,1251 L 513,1252 L 513,1253 L 511,1255 L 511,1256 L 509,1258 L 509,1259 L 507,1261 L 507,1262 L 506,1263 L 506,1264 L 504,1266 L 504,1267 L 502,1269 L 502,1270 L 501,1271 L 501,1272 L 499,1274 L 499,1275 L 498,1276 L 498,1277 L 496,1279 L 496,1280 L 495,1281 L 495,1282 L 493,1284 L 493,1285 L 492,1286 L 492,1287 L 491,1288 L 491,1289 L 489,1291 L 489,1292 L 488,1293 L 488,1294 L 486,1296 L 486,1297 L 485,1298 L 485,1299 L 484,1300 L 484,1301 L 482,1303 L 482,1304 L 481,1305 L 481,1306 L 479,1308 L 479,1309 L 476,1312 L 475,1312 L 474,1313 L 470,1313 L 469,1314 L 460,1314 L 459,1315 L 456,1315 L 455,1316 L 452,1316 L 451,1317 L 448,1317 L 447,1318 L 445,1318 L 444,1319 L 441,1319 L 440,1320 L 438,1320 L 437,1321 L 435,1321 L 434,1322 L 432,1322 L 431,1323 L 430,1323 L 429,1324 L 427,1324 L 426,1325 L 424,1325 L 423,1326 L 422,1326 L 421,1327 L 419,1327 L 418,1328 L 417,1328 L 416,1329 L 415,1329 L 414,1330 L 412,1330 L 411,1331 L 410,1331 L 409,1332 L 408,1332 L 407,1333 L 405,1333 L 404,1334 L 403,1334 L 402,1335 L 401,1335 L 400,1336 L 399,1336 L 398,1337 L 397,1337 L 396,1338 L 395,1338 L 394,1339 L 393,1339 L 392,1340 L 390,1340 L 389,1341 L 388,1341 L 387,1342 L 386,1342 L 385,1343 L 384,1343 L 383,1344 L 382,1344 L 381,1345 L 380,1345 L 379,1346 L 378,1346 L 377,1347 L 376,1347 L 375,1348 L 374,1348 L 373,1349 L 372,1349 L 371,1350 L 370,1350 L 369,1351 L 368,1351 L 367,1352 L 366,1352 L 365,1353 L 364,1353 L 363,1354 L 362,1354 L 361,1355 L 360,1355 L 359,1356 L 358,1356 L 357,1357 L 355,1357 L 354,1358 L 353,1358 L 352,1359 L 351,1359 L 350,1360 L 349,1360 L 348,1361 L 347,1361 L 346,1362 L 345,1362 L 344,1363 L 343,1363 L 342,1364 L 341,1364 L 340,1365 L 339,1365 L 338,1366 L 337,1366 L 336,1367 L 334,1367 L 333,1368 L 332,1368 L 331,1369 L 330,1369 L 329,1370 L 328,1370 L 327,1371 L 326,1371 L 325,1372 L 301,1372 L 300,1371 L 278,1371 L 277,1372 L 272,1372 L 271,1373 L 268,1373 L 267,1374 L 265,1374 L 264,1375 L 263,1375 L 261,1377 L 260,1377 L 254,1383 L 254,1384 L 252,1386 L 252,1387 L 251,1388 L 251,1389 L 250,1390 L 250,1391 L 249,1392 L 249,1393 L 248,1394 L 248,1396 L 247,1397 L 247,1401 L 246,1402 L 246,1411 L 247,1412 L 247,1415 L 248,1416 L 248,1418 L 249,1419 L 249,1420 L 250,1421 L 250,1422 L 252,1424 L 252,1425 L 259,1432 L 260,1432 L 263,1435 L 264,1435 L 266,1437 L 267,1437 L 269,1439 L 270,1439 L 271,1440 L 272,1440 L 273,1441 L 274,1441 L 275,1442 L 276,1442 L 277,1443 L 279,1443 L 280,1444 L 281,1444 L 282,1445 L 284,1445 L 285,1446 L 287,1446 L 288,1447 L 291,1447 L 292,1448 L 297,1448 L 298,1449 L 310,1449 L 311,1450 L 313,1450 L 315,1452 L 313,1454 L 311,1454 L 310,1455 L 309,1455 L 308,1456 L 306,1456 L 305,1457 L 304,1457 L 303,1458 L 301,1458 L 300,1459 L 298,1459 L 297,1460 L 296,1460 L 295,1461 L 294,1461 L 293,1462 L 291,1462 L 290,1463 L 289,1463 L 287,1465 L 286,1465 L 283,1468 L 282,1468 L 278,1472 L 278,1473 L 276,1475 L 276,1476 L 275,1477 L 275,1486 L 276,1487 L 276,1490 L 277,1491 L 277,1494 L 278,1495 L 278,1496 L 279,1497 L 279,1499 L 280,1500 L 280,1501 L 281,1502 L 281,1503 L 283,1505 L 283,1506 L 286,1509 L 286,1510 L 291,1515 L 292,1515 L 294,1517 L 295,1517 L 296,1518 L 297,1518 L 298,1519 L 299,1519 L 300,1520 L 303,1520 L 304,1521 L 307,1521 L 308,1522 L 316,1522 L 317,1523 L 324,1523 L 325,1522 L 334,1522 L 335,1521 L 340,1521 L 341,1520 L 346,1520 L 347,1519 L 351,1519 L 352,1518 L 355,1518 L 356,1517 L 360,1517 L 361,1516 L 365,1516 L 366,1515 L 370,1515 L 371,1514 L 375,1514 L 376,1513 L 380,1513 L 381,1512 L 385,1512 L 386,1511 L 389,1511 L 390,1510 L 394,1510 L 395,1509 L 397,1509 L 398,1508 L 399,1508 L 400,1507 L 402,1507 L 403,1506 L 404,1506 L 405,1505 L 406,1505 L 407,1504 L 408,1504 L 409,1503 L 410,1503 L 411,1502 L 412,1502 L 413,1501 L 414,1501 L 415,1500 L 416,1500 L 417,1499 L 418,1499 L 419,1498 L 421,1498 L 422,1497 L 423,1497 L 424,1496 L 426,1496 L 427,1495 L 429,1495 L 430,1494 L 432,1494 L 433,1493 L 435,1493 L 436,1492 L 440,1492 L 441,1491 L 448,1491 L 449,1490 L 451,1490 L 452,1491 L 459,1491 L 460,1492 L 463,1492 L 464,1493 L 465,1493 L 466,1494 L 467,1494 L 468,1495 L 469,1495 L 474,1500 L 475,1500 L 486,1511 L 487,1511 L 495,1519 L 496,1519 L 503,1526 L 504,1526 L 509,1531 L 510,1531 L 513,1534 L 514,1534 L 517,1537 L 518,1537 L 521,1540 L 522,1540 L 524,1542 L 525,1542 L 527,1544 L 528,1544 L 529,1545 L 530,1545 L 532,1547 L 533,1547 L 534,1548 L 535,1548 L 537,1550 L 538,1550 L 539,1551 L 540,1551 L 541,1552 L 542,1552 L 543,1553 L 544,1553 L 545,1554 L 546,1554 L 547,1555 L 548,1555 L 549,1556 L 550,1556 L 551,1557 L 553,1557 L 554,1558 L 555,1558 L 558,1561 L 558,1564 L 557,1565 L 557,1566 L 556,1567 L 556,1568 L 554,1570 L 554,1571 L 553,1572 L 553,1574 L 552,1575 L 552,1577 L 551,1578 L 551,1580 L 550,1581 L 550,1583 L 549,1584 L 549,1586 L 548,1587 L 548,1589 L 547,1590 L 547,1592 L 546,1593 L 546,1595 L 545,1596 L 545,1598 L 544,1599 L 544,1600 L 543,1601 L 543,1603 L 541,1605 L 541,1606 L 540,1607 L 540,1608 L 531,1617 L 530,1617 L 529,1618 L 528,1618 L 527,1619 L 526,1619 L 525,1620 L 523,1620 L 522,1621 L 520,1621 L 519,1622 L 515,1622 L 514,1623 L 473,1623 L 472,1622 L 464,1622 L 463,1621 L 458,1621 L 457,1620 L 453,1620 L 452,1619 L 448,1619 L 447,1618 L 444,1618 L 443,1617 L 440,1617 L 439,1616 L 436,1616 L 435,1615 L 432,1615 L 431,1614 L 429,1614 L 428,1613 L 426,1613 L 425,1612 L 422,1612 L 421,1611 L 419,1611 L 418,1610 L 416,1610 L 415,1609 L 413,1609 L 412,1608 L 410,1608 L 409,1607 L 408,1607 L 407,1606 L 405,1606 L 404,1605 L 402,1605 L 401,1604 L 400,1604 L 399,1603 L 397,1603 L 396,1602 L 394,1602 L 393,1601 L 392,1601 L 391,1600 L 389,1600 L 388,1599 L 387,1599 L 386,1598 L 384,1598 L 383,1597 L 382,1597 L 381,1596 L 379,1596 L 378,1595 L 377,1595 L 376,1594 L 375,1594 L 374,1593 L 372,1593 L 371,1592 L 370,1592 L 369,1591 L 367,1591 L 366,1590 L 365,1590 L 364,1589 L 363,1589 L 362,1588 L 360,1588 L 359,1587 L 358,1587 L 357,1586 L 356,1586 L 355,1585 L 353,1585 L 352,1584 L 351,1584 L 350,1583 L 348,1583 L 347,1582 L 346,1582 L 345,1581 L 344,1581 L 343,1580 L 341,1580 L 340,1579 L 339,1579 L 338,1578 L 337,1578 L 336,1577 L 335,1577 L 334,1576 L 332,1576 L 331,1575 L 330,1575 L 329,1574 L 328,1574 L 327,1573 L 325,1573 L 324,1572 L 323,1572 L 322,1571 L 320,1571 L 319,1570 L 317,1570 L 316,1569 L 315,1569 L 314,1568 L 312,1568 L 311,1567 L 309,1567 L 308,1566 L 305,1566 L 304,1565 L 301,1565 L 300,1564 L 297,1564 L 296,1563 L 291,1563 L 290,1562 L 285,1562 L 284,1561 L 275,1561 L 274,1560 L 231,1560 L 230,1561 L 220,1561 L 219,1562 L 212,1562 L 211,1563 L 206,1563 L 205,1564 L 200,1564 L 199,1565 L 195,1565 L 194,1566 L 190,1566 L 189,1567 L 185,1567 L 184,1568 L 181,1568 L 180,1569 L 177,1569 L 176,1570 L 174,1570 L 173,1571 L 170,1571 L 169,1572 L 167,1572 L 166,1573 L 163,1573 L 162,1574 L 160,1574 L 159,1575 L 157,1575 L 156,1576 L 154,1576 L 153,1577 L 152,1577 L 151,1578 L 149,1578 L 148,1579 L 146,1579 L 145,1580 L 144,1580 L 143,1581 L 141,1581 L 140,1582 L 139,1582 L 138,1583 L 136,1583 L 135,1584 L 134,1584 L 133,1585 L 132,1585 L 131,1586 L 130,1586 L 129,1587 L 128,1587 L 127,1588 L 125,1588 L 124,1589 L 123,1589 L 122,1590 L 121,1590 L 120,1591 L 119,1591 L 118,1592 L 117,1592 L 116,1593 L 115,1593 L 114,1594 L 113,1594 L 112,1595 L 111,1595 L 110,1596 L 109,1596 L 107,1598 L 106,1598 L 105,1599 L 104,1599 L 103,1600 L 102,1600 L 101,1601 L 100,1601 L 98,1603 L 97,1603 L 96,1604 L 95,1604 L 94,1605 L 93,1605 L 91,1607 L 90,1607 L 89,1608 L 88,1608 L 86,1610 L 85,1610 L 83,1612 L 82,1612 L 81,1613 L 80,1613 L 78,1615 L 77,1615 L 75,1617 L 74,1617 L 72,1619 L 71,1619 L 69,1621 L 68,1621 L 65,1624 L 64,1624 L 62,1626 L 61,1626 L 59,1628 L 59,1629 L 60,1628 L 63,1628 L 64,1627 L 67,1627 L 68,1626 L 70,1626 L 71,1625 L 74,1625 L 75,1624 L 78,1624 L 79,1623 L 82,1623 L 83,1622 L 86,1622 L 87,1621 L 91,1621 L 92,1620 L 95,1620 L 96,1619 L 99,1619 L 100,1618 L 104,1618 L 105,1617 L 108,1617 L 109,1616 L 113,1616 L 114,1615 L 118,1615 L 119,1614 L 123,1614 L 124,1613 L 128,1613 L 129,1612 L 134,1612 L 135,1611 L 140,1611 L 141,1610 L 146,1610 L 147,1609 L 153,1609 L 154,1608 L 160,1608 L 161,1607 L 167,1607 L 168,1606 L 176,1606 L 177,1605 L 187,1605 L 188,1604 L 202,1604 L 203,1603 L 233,1603 L 234,1604 L 241,1604 L 242,1605 L 247,1605 L 248,1606 L 252,1606 L 253,1607 L 256,1607 L 257,1608 L 260,1608 L 261,1609 L 264,1609 L 265,1610 L 268,1610 L 269,1611 L 271,1611 L 272,1612 L 275,1612 L 276,1613 L 278,1613 L 279,1614 L 281,1614 L 282,1615 L 284,1615 L 285,1616 L 287,1616 L 288,1617 L 290,1617 L 291,1618 L 293,1618 L 294,1619 L 296,1619 L 297,1620 L 299,1620 L 300,1621 L 302,1621 L 303,1622 L 304,1622 L 305,1623 L 307,1623 L 308,1624 L 309,1624 L 310,1625 L 312,1625 L 313,1626 L 314,1626 L 315,1627 L 317,1627 L 318,1628 L 319,1628 L 320,1629 L 322,1629 L 323,1630 L 324,1630 L 325,1631 L 326,1631 L 327,1632 L 329,1632 L 330,1633 L 331,1633 L 332,1634 L 333,1634 L 334,1635 L 336,1635 L 337,1636 L 338,1636 L 339,1637 L 340,1637 L 341,1638 L 342,1638 L 343,1639 L 345,1639 L 346,1640 L 347,1640 L 348,1641 L 349,1641 L 350,1642 L 351,1642 L 352,1643 L 353,1643 L 354,1644 L 356,1644 L 357,1645 L 358,1645 L 359,1646 L 360,1646 L 361,1647 L 362,1647 L 363,1648 L 364,1648 L 365,1649 L 367,1649 L 368,1650 L 369,1650 L 370,1651 L 371,1651 L 372,1652 L 373,1652 L 374,1653 L 376,1653 L 377,1654 L 378,1654 L 379,1655 L 380,1655 L 381,1656 L 382,1656 L 383,1657 L 385,1657 L 386,1658 L 387,1658 L 388,1659 L 389,1659 L 390,1660 L 392,1660 L 393,1661 L 394,1661 L 395,1662 L 396,1662 L 397,1663 L 399,1663 L 400,1664 L 401,1664 L 402,1665 L 404,1665 L 405,1666 L 406,1666 L 407,1667 L 409,1667 L 410,1668 L 411,1668 L 412,1669 L 414,1669 L 415,1670 L 417,1670 L 418,1671 L 419,1671 L 420,1672 L 422,1672 L 423,1673 L 425,1673 L 426,1674 L 428,1674 L 429,1675 L 431,1675 L 432,1676 L 434,1676 L 435,1677 L 437,1677 L 438,1678 L 440,1678 L 441,1679 L 444,1679 L 445,1680 L 447,1680 L 448,1681 L 451,1681 L 452,1682 L 455,1682 L 456,1683 L 459,1683 L 460,1684 L 464,1684 L 465,1685 L 469,1685 L 470,1686 L 474,1686 L 475,1687 L 481,1687 L 482,1688 L 499,1688 L 500,1689 L 519,1689 L 520,1690 L 520,1691 L 519,1692 L 519,1696 L 518,1697 L 518,1702 L 517,1703 L 517,1708 L 516,1709 L 516,1715 L 515,1716 L 515,1722 L 514,1723 L 514,1729 L 513,1730 L 513,1736 L 512,1737 L 512,1742 L 511,1743 L 511,1748 L 510,1749 L 510,1754 L 509,1755 L 509,1760 L 508,1761 L 508,1765 L 507,1766 L 507,1771 L 506,1772 L 506,1776 L 505,1777 L 505,1782 L 504,1783 L 504,1788 L 503,1789 L 503,1793 L 502,1794 L 502,1799 L 501,1800 L 501,1805 L 500,1806 L 500,1811 L 499,1812 L 499,1817 L 498,1818 L 498,1823 L 497,1824 L 497,1829 L 496,1830 L 496,1835 L 495,1836 L 495,1840 L 494,1841 L 494,1846 L 493,1847 L 493,1852 L 492,1853 L 492,1857 L 491,1858 L 491,1863 L 490,1864 L 490,1868 L 489,1869 L 489,1873 L 488,1874 L 488,1878 L 487,1879 L 487,1883 L 486,1884 L 486,1887 L 485,1888 L 485,1892 L 484,1893 L 484,1896 L 483,1897 L 483,1900 L 482,1901 L 482,1904 L 481,1905 L 481,1908 L 480,1909 L 480,1912 L 479,1913 L 479,1915 L 478,1916 L 478,1919 L 477,1920 L 477,1922 L 476,1923 L 476,1925 L 475,1926 L 475,1927 L 474,1928 L 474,1930 L 473,1931 L 473,1933 L 472,1934 L 472,1935 L 471,1936 L 471,1938 L 470,1939 L 470,1940 L 469,1941 L 469,1943 L 468,1944 L 468,1945 L 467,1946 L 467,1947 L 466,1948 L 466,1949 L 465,1950 L 465,1952 L 464,1953 L 464,1954 L 463,1955 L 463,1956 L 462,1957 L 462,1958 L 461,1959 L 461,1961 L 460,1962 L 460,1963 L 459,1964 L 459,1965 L 458,1966 L 458,1967 L 456,1969 L 456,1970 L 455,1971 L 455,1972 L 453,1974 L 453,1975 L 450,1978 L 448,1978 L 447,1979 L 445,1979 L 444,1980 L 441,1980 L 440,1981 L 438,1981 L 437,1982 L 435,1982 L 434,1983 L 432,1983 L 431,1984 L 429,1984 L 428,1985 L 426,1985 L 425,1986 L 422,1986 L 421,1987 L 419,1987 L 418,1988 L 416,1988 L 415,1989 L 413,1989 L 412,1990 L 410,1990 L 409,1991 L 407,1991 L 406,1992 L 403,1992 L 402,1993 L 400,1993 L 399,1994 L 397,1994 L 396,1995 L 394,1995 L 393,1996 L 391,1996 L 390,1997 L 388,1997 L 387,1998 L 384,1998 L 383,1999 L 381,1999 L 380,2000 L 378,2000 L 377,2001 L 375,2001 L 374,2002 L 372,2002 L 371,2003 L 369,2003 L 368,2004 L 365,2004 L 364,2005 L 362,2005 L 361,2006 L 359,2006 L 358,2007 L 356,2007 L 355,2008 L 353,2008 L 352,2009 L 349,2009 L 348,2010 L 346,2010 L 345,2011 L 343,2011 L 342,2012 L 340,2012 L 339,2013 L 337,2013 L 336,2014 L 334,2014 L 333,2015 L 331,2015 L 330,2016 L 328,2016 L 327,2017 L 325,2017 L 324,2018 L 322,2018 L 321,2019 L 320,2019 L 319,2020 L 317,2020 L 316,2021 L 315,2021 L 314,2022 L 312,2022 L 311,2023 L 310,2023 L 309,2024 L 308,2024 L 307,2025 L 306,2025 L 305,2026 L 303,2026 L 302,2027 L 301,2027 L 300,2028 L 299,2028 L 298,2029 L 296,2029 L 295,2030 L 294,2030 L 293,2031 L 292,2031 L 291,2032 L 290,2032 L 289,2033 L 288,2033 L 287,2034 L 286,2034 L 285,2035 L 284,2035 L 283,2036 L 282,2036 L 281,2037 L 280,2037 L 279,2038 L 278,2038 L 277,2039 L 276,2039 L 275,2040 L 274,2040 L 273,2041 L 272,2041 L 270,2043 L 269,2043 L 268,2044 L 267,2044 L 266,2045 L 265,2045 L 263,2047 L 262,2047 L 261,2048 L 260,2048 L 258,2050 L 257,2050 L 255,2052 L 254,2052 L 251,2055 L 250,2055 L 248,2057 L 247,2057 L 243,2061 L 242,2061 L 235,2068 L 234,2068 L 227,2075 L 227,2076 L 221,2082 L 221,2083 L 219,2085 L 219,2086 L 217,2088 L 217,2089 L 216,2090 L 216,2091 L 215,2092 L 215,2094 L 214,2095 L 214,2097 L 213,2098 L 213,2101 L 212,2102 L 212,2118 L 213,2119 L 213,2122 L 214,2123 L 214,2125 L 215,2126 L 215,2127 L 216,2128 L 216,2129 L 217,2130 L 217,2131 L 219,2133 L 219,2134 L 225,2140 L 226,2140 L 229,2143 L 230,2143 L 232,2145 L 233,2145 L 234,2146 L 235,2146 L 236,2147 L 237,2147 L 238,2148 L 239,2148 L 240,2149 L 242,2149 L 243,2150 L 244,2150 L 245,2151 L 247,2151 L 248,2152 L 250,2152 L 251,2153 L 253,2153 L 254,2154 L 256,2154 L 257,2155 L 260,2155 L 261,2156 L 265,2156 L 266,2157 L 270,2157 L 271,2158 L 275,2158 L 276,2159 L 278,2159 L 280,2161 L 281,2161 L 283,2163 L 284,2163 L 286,2165 L 287,2165 L 288,2166 L 289,2166 L 290,2167 L 291,2167 L 292,2168 L 294,2168 L 295,2169 L 296,2169 L 297,2170 L 299,2170 L 300,2171 L 301,2171 L 302,2172 L 304,2172 L 305,2173 L 307,2173 L 308,2174 L 311,2174 L 312,2175 L 314,2175 L 315,2176 L 319,2176 L 320,2177 L 325,2177 L 326,2178 L 358,2178 L 359,2177 L 364,2177 L 365,2176 L 370,2176 L 371,2175 L 376,2175 L 377,2174 L 383,2174 L 384,2173 L 389,2173 L 390,2172 L 394,2172 L 395,2171 L 399,2171 L 400,2170 L 404,2170 L 405,2169 L 408,2169 L 409,2168 L 412,2168 L 413,2167 L 415,2167 L 416,2166 L 419,2166 L 420,2165 L 423,2165 L 424,2164 L 426,2164 L 427,2163 L 430,2163 L 431,2162 L 434,2162 L 435,2161 L 438,2161 L 439,2160 L 441,2160 L 442,2159 L 445,2159 L 446,2158 L 449,2158 L 450,2157 L 453,2157 L 454,2156 L 456,2156 L 457,2155 L 460,2155 L 461,2154 L 464,2154 L 465,2153 L 468,2153 L 469,2152 L 471,2152 L 472,2151 L 475,2151 L 476,2150 L 479,2150 L 480,2149 L 482,2149 L 483,2148 L 486,2148 L 487,2147 L 490,2147 L 491,2146 L 494,2146 L 495,2145 L 498,2145 L 499,2144 L 502,2144 L 503,2143 L 505,2143 L 506,2142 L 508,2142 L 509,2141 L 512,2141 L 513,2140 L 515,2140 L 516,2139 L 517,2139 L 518,2138 L 520,2138 L 521,2137 L 522,2137 L 523,2136 L 525,2136 L 526,2135 L 527,2135 L 528,2134 L 529,2134 L 530,2133 L 531,2133 L 532,2132 L 533,2132 L 534,2131 L 535,2131 L 536,2130 L 537,2130 L 538,2129 L 539,2129 L 540,2128 L 541,2128 L 543,2126 L 544,2126 L 545,2125 L 546,2125 L 548,2123 L 549,2123 L 552,2120 L 553,2120 L 556,2117 L 557,2117 L 562,2112 L 563,2112 L 569,2106 L 569,2105 L 574,2100 L 574,2099 L 576,2097 L 576,2096 L 577,2095 L 577,2094 L 578,2093 L 578,2092 L 579,2091 L 579,2086 L 580,2085 L 580,2078 L 581,2077 L 581,2055 L 580,2054 L 580,2049 L 579,2048 L 579,2037 L 589,2027 L 590,2027 L 597,2020 L 598,2020 L 603,2015 L 604,2015 L 609,2010 L 610,2010 L 614,2006 L 615,2006 L 619,2002 L 620,2002 L 624,1998 L 625,1998 L 629,1994 L 630,1994 L 633,1991 L 634,1991 L 638,1987 L 639,1987 L 642,1984 L 643,1984 L 646,1981 L 647,1981 L 651,1977 L 652,1977 L 655,1974 L 656,1974 L 659,1971 L 660,1971 L 662,1969 L 663,1969 L 666,1966 L 667,1966 L 670,1963 L 671,1963 L 674,1960 L 675,1960 L 677,1958 L 678,1958 L 681,1955 L 682,1955 L 684,1953 L 685,1953 L 688,1950 L 689,1950 L 691,1948 L 692,1948 L 695,1945 L 696,1945 L 698,1943 L 699,1943 L 701,1941 L 702,1941 L 705,1938 L 706,1938 L 708,1936 L 709,1936 L 711,1934 L 712,1934 L 714,1932 L 715,1932 L 717,1930 L 718,1930 L 720,1928 L 721,1928 L 723,1926 L 724,1926 L 726,1924 L 727,1924 L 729,1922 L 730,1922 L 732,1920 L 733,1920 L 735,1918 L 736,1918 L 738,1916 L 739,1916 L 741,1914 L 742,1914 L 744,1912 L 745,1912 L 747,1910 L 748,1910 L 749,1909 L 750,1909 L 752,1907 L 753,1907 L 755,1905 L 756,1905 L 758,1903 L 759,1903 L 760,1902 L 761,1902 L 763,1900 L 764,1900 L 766,1898 L 767,1898 L 768,1897 L 769,1897 L 771,1895 L 772,1895 L 774,1893 L 775,1893 L 776,1892 L 777,1892 L 779,1890 L 780,1890 L 781,1889 L 782,1889 L 784,1887 L 785,1887 L 787,1885 L 788,1885 L 789,1884 L 790,1884 L 791,1883 L 792,1883 L 794,1881 L 795,1881 L 796,1880 L 797,1880 L 798,1879 L 799,1879 L 800,1878 L 801,1878 L 802,1877 L 803,1877 L 805,1875 L 806,1875 L 807,1874 L 808,1874 L 809,1873 L 810,1873 L 811,1872 L 812,1872 L 813,1871 L 814,1871 L 816,1869 L 817,1869 L 818,1868 L 819,1868 L 820,1867 L 824,1867 L 825,1868 L 826,1868 L 827,1869 L 828,1869 L 829,1870 L 830,1870 L 831,1871 L 832,1871 L 833,1872 L 834,1872 L 835,1873 L 836,1873 L 837,1874 L 839,1874 L 840,1875 L 841,1875 L 842,1876 L 843,1876 L 845,1878 L 846,1878 L 847,1879 L 848,1879 L 849,1880 L 850,1880 L 852,1882 L 853,1882 L 854,1883 L 855,1883 L 857,1885 L 858,1885 L 859,1886 L 860,1886 L 862,1888 L 863,1888 L 865,1890 L 866,1890 L 868,1892 L 869,1892 L 871,1894 L 872,1894 L 874,1896 L 875,1896 L 877,1898 L 878,1898 L 880,1900 L 881,1900 L 883,1902 L 884,1902 L 887,1905 L 888,1905 L 890,1907 L 891,1907 L 894,1910 L 895,1910 L 898,1913 L 899,1913 L 902,1916 L 903,1916 L 906,1919 L 907,1919 L 911,1923 L 912,1923 L 916,1927 L 917,1927 L 921,1931 L 922,1931 L 927,1936 L 928,1936 L 934,1942 L 935,1942 L 941,1948 L 942,1948 L 950,1956 L 951,1956 L 959,1964 L 960,1964 L 971,1975 L 972,1975 L 1001,2004 L 1001,2005 L 1026,2030 L 1026,2031 L 1040,2045 L 1040,2047 L 1041,2048 L 1041,2068 L 1042,2069 L 1042,2084 L 1043,2085 L 1043,2094 L 1044,2095 L 1044,2100 L 1045,2101 L 1045,2105 L 1046,2106 L 1046,2108 L 1047,2109 L 1047,2111 L 1048,2112 L 1048,2113 L 1049,2114 L 1049,2115 L 1050,2116 L 1050,2117 L 1052,2119 L 1052,2120 L 1056,2124 L 1056,2125 L 1058,2127 L 1059,2127 L 1063,2131 L 1064,2131 L 1066,2133 L 1067,2133 L 1069,2135 L 1070,2135 L 1071,2136 L 1072,2136 L 1073,2137 L 1074,2137 L 1075,2138 L 1077,2138 L 1078,2139 L 1079,2139 L 1080,2140 L 1082,2140 L 1083,2141 L 1084,2141 L 1085,2142 L 1087,2142 L 1088,2143 L 1090,2143 L 1091,2144 L 1093,2144 L 1094,2145 L 1095,2145 L 1096,2146 L 1098,2146 L 1099,2147 L 1101,2147 L 1102,2148 L 1104,2148 L 1105,2149 L 1107,2149 L 1108,2150 L 1110,2150 L 1111,2151 L 1113,2151 L 1114,2152 L 1116,2152 L 1117,2153 L 1119,2153 L 1120,2154 L 1123,2154 L 1124,2155 L 1126,2155 L 1127,2156 L 1129,2156 L 1130,2157 L 1133,2157 L 1134,2158 L 1137,2158 L 1138,2159 L 1141,2159 L 1142,2160 L 1145,2160 L 1146,2161 L 1149,2161 L 1150,2162 L 1153,2162 L 1154,2163 L 1158,2163 L 1159,2164 L 1163,2164 L 1164,2165 L 1168,2165 L 1169,2166 L 1175,2166 L 1176,2167 L 1182,2167 L 1183,2168 L 1190,2168 L 1191,2169 L 1200,2169 L 1201,2170 L 1210,2170 L 1211,2171 L 1226,2171 L 1227,2172 L 1266,2172 L 1267,2171 L 1285,2171 L 1290,2166 L 1291,2166 L 1292,2165 L 1294,2165 L 1295,2164 L 1297,2164 L 1298,2163 L 1300,2163 L 1301,2162 L 1305,2162 L 1306,2161 L 1313,2161 L 1314,2160 L 1332,2160 L 1333,2159 L 1344,2159 L 1345,2158 L 1350,2158 L 1351,2157 L 1354,2157 L 1355,2156 L 1357,2156 L 1358,2155 L 1360,2155 L 1362,2153 L 1363,2153 L 1364,2152 L 1365,2152 L 1377,2140 L 1377,2139 L 1379,2137 L 1379,2136 L 1380,2135 L 1380,2134 L 1381,2133 L 1381,2131 L 1382,2130 L 1382,2128 L 1383,2127 L 1383,2123 L 1382,2122 L 1382,2121 L 1381,2120 L 1381,2119 L 1380,2118 L 1380,2117 L 1379,2116 L 1379,2115 L 1377,2113 L 1377,2112 L 1375,2110 L 1375,2109 L 1374,2108 L 1374,2107 L 1371,2104 L 1371,2103 L 1369,2101 L 1369,2100 L 1366,2097 L 1366,2096 L 1360,2090 L 1360,2089 L 1353,2082 L 1352,2082 L 1347,2077 L 1346,2077 L 1343,2074 L 1342,2074 L 1339,2071 L 1338,2071 L 1336,2069 L 1335,2069 L 1333,2067 L 1332,2067 L 1331,2066 L 1330,2066 L 1328,2064 L 1327,2064 L 1326,2063 L 1325,2063 L 1323,2061 L 1322,2061 L 1321,2060 L 1320,2060 L 1319,2059 L 1318,2059 L 1316,2057 L 1315,2057 L 1314,2056 L 1313,2056 L 1312,2055 L 1311,2055 L 1310,2054 L 1309,2054 L 1308,2053 L 1307,2053 L 1306,2052 L 1305,2052 L 1304,2051 L 1302,2051 L 1301,2050 L 1300,2050 L 1299,2049 L 1298,2049 L 1297,2048 L 1296,2048 L 1295,2047 L 1294,2047 L 1293,2046 L 1291,2046 L 1290,2045 L 1289,2045 L 1288,2044 L 1287,2044 L 1286,2043 L 1284,2043 L 1283,2042 L 1282,2042 L 1281,2041 L 1280,2041 L 1279,2040 L 1277,2040 L 1276,2039 L 1275,2039 L 1274,2038 L 1273,2038 L 1272,2037 L 1270,2037 L 1269,2036 L 1268,2036 L 1267,2035 L 1266,2035 L 1265,2034 L 1264,2034 L 1263,2033 L 1262,2033 L 1261,2032 L 1259,2032 L 1258,2031 L 1257,2031 L 1256,2030 L 1255,2030 L 1254,2029 L 1253,2029 L 1252,2028 L 1250,2028 L 1249,2027 L 1248,2027 L 1247,2026 L 1246,2026 L 1245,2025 L 1244,2025 L 1243,2024 L 1242,2024 L 1241,2023 L 1239,2023 L 1238,2022 L 1237,2022 L 1236,2021 L 1235,2021 L 1234,2020 L 1233,2020 L 1232,2019 L 1230,2019 L 1229,2018 L 1228,2018 L 1227,2017 L 1226,2017 L 1222,2013 L 1222,2012 L 1221,2011 L 1221,2010 L 1220,2009 L 1220,2008 L 1219,2007 L 1219,2006 L 1218,2005 L 1218,2003 L 1217,2002 L 1217,2001 L 1216,2000 L 1216,1999 L 1215,1998 L 1215,1996 L 1214,1995 L 1214,1994 L 1213,1993 L 1213,1991 L 1212,1990 L 1212,1989 L 1211,1988 L 1211,1986 L 1210,1985 L 1210,1984 L 1209,1983 L 1209,1981 L 1208,1980 L 1208,1978 L 1207,1977 L 1207,1976 L 1206,1975 L 1206,1973 L 1205,1972 L 1205,1970 L 1204,1969 L 1204,1968 L 1203,1967 L 1203,1965 L 1202,1964 L 1202,1962 L 1201,1961 L 1201,1959 L 1200,1958 L 1200,1956 L 1199,1955 L 1199,1953 L 1198,1952 L 1198,1950 L 1197,1949 L 1197,1947 L 1196,1946 L 1196,1944 L 1195,1943 L 1195,1941 L 1194,1940 L 1194,1938 L 1193,1937 L 1193,1935 L 1192,1934 L 1192,1931 L 1191,1930 L 1191,1928 L 1190,1927 L 1190,1925 L 1189,1924 L 1189,1921 L 1188,1920 L 1188,1918 L 1187,1917 L 1187,1915 L 1186,1914 L 1186,1911 L 1185,1910 L 1185,1908 L 1184,1907 L 1184,1904 L 1183,1903 L 1183,1900 L 1182,1899 L 1182,1897 L 1181,1896 L 1181,1893 L 1180,1892 L 1180,1889 L 1179,1888 L 1179,1885 L 1178,1884 L 1178,1881 L 1177,1880 L 1177,1877 L 1176,1876 L 1176,1873 L 1175,1872 L 1175,1868 L 1174,1867 L 1174,1864 L 1173,1863 L 1173,1859 L 1172,1858 L 1172,1855 L 1171,1854 L 1171,1850 L 1170,1849 L 1170,1845 L 1169,1844 L 1169,1841 L 1168,1840 L 1168,1836 L 1167,1835 L 1167,1830 L 1166,1829 L 1166,1825 L 1165,1824 L 1165,1820 L 1164,1819 L 1164,1814 L 1163,1813 L 1163,1808 L 1162,1807 L 1162,1802 L 1161,1801 L 1161,1796 L 1160,1795 L 1160,1790 L 1159,1789 L 1159,1783 L 1158,1782 L 1158,1777 L 1157,1776 L 1157,1771 L 1156,1770 L 1156,1764 L 1155,1763 L 1155,1758 L 1154,1757 L 1154,1751 L 1153,1750 L 1153,1744 L 1152,1743 L 1152,1736 L 1151,1735 L 1151,1728 L 1150,1727 L 1150,1720 L 1149,1719 L 1149,1712 L 1148,1711 L 1148,1703 L 1147,1702 L 1147,1698 L 1146,1697 L 1146,1691 L 1147,1690 L 1147,1689 L 1148,1688 L 1148,1687 L 1151,1684 L 1151,1683 L 1154,1680 L 1154,1679 L 1156,1677 L 1156,1676 L 1158,1674 L 1158,1673 L 1160,1671 L 1160,1670 L 1161,1669 L 1161,1668 L 1163,1666 L 1163,1665 L 1165,1663 L 1165,1662 L 1166,1661 L 1166,1660 L 1168,1658 L 1168,1657 L 1169,1656 L 1169,1655 L 1170,1654 L 1170,1653 L 1171,1652 L 1171,1651 L 1172,1650 L 1172,1649 L 1173,1648 L 1173,1646 L 1174,1645 L 1174,1644 L 1175,1643 L 1175,1642 L 1176,1641 L 1176,1640 L 1178,1638 L 1178,1637 L 1179,1636 L 1179,1635 L 1180,1634 L 1180,1633 L 1181,1632 L 1181,1630 L 1182,1629 L 1182,1628 L 1183,1627 L 1183,1626 L 1184,1625 L 1184,1624 L 1185,1623 L 1185,1621 L 1186,1620 L 1186,1619 L 1187,1618 L 1187,1616 L 1188,1615 L 1188,1614 L 1189,1613 L 1189,1611 L 1190,1610 L 1190,1608 L 1191,1607 L 1191,1605 L 1192,1604 L 1192,1601 L 1193,1600 L 1193,1598 L 1194,1597 L 1194,1595 L 1195,1594 L 1195,1592 L 1196,1591 L 1196,1589 L 1197,1588 L 1197,1586 L 1198,1585 L 1198,1582 L 1199,1581 L 1199,1579 L 1200,1578 L 1200,1575 L 1201,1574 L 1201,1571 L 1202,1570 L 1202,1567 L 1203,1566 L 1203,1563 L 1204,1562 L 1204,1558 L 1205,1557 L 1205,1554 L 1206,1553 L 1206,1549 L 1207,1548 L 1207,1543 L 1208,1542 L 1208,1538 L 1209,1537 L 1209,1532 L 1210,1531 L 1210,1525 L 1211,1524 L 1211,1518 L 1212,1517 L 1212,1509 L 1213,1508 L 1213,1500 L 1214,1499 L 1214,1488 L 1215,1487 L 1215,1476 L 1216,1475 L 1216,1464 L 1217,1463 L 1217,1451 L 1218,1450 L 1218,1439 L 1219,1438 L 1219,1426 L 1220,1425 L 1220,1413 L 1221,1412 L 1221,1400 L 1222,1399 L 1222,1387 L 1223,1386 L 1223,1373 L 1224,1372 L 1224,1359 L 1225,1358 L 1225,1344 L 1226,1343 L 1226,1331 L 1227,1330 L 1229,1332 L 1230,1332 L 1235,1337 L 1236,1337 L 1241,1342 L 1242,1342 L 1246,1346 L 1247,1346 L 1252,1351 L 1253,1351 L 1257,1355 L 1258,1355 L 1263,1360 L 1264,1360 L 1268,1364 L 1269,1364 L 1274,1369 L 1275,1369 L 1279,1373 L 1280,1373 L 1285,1378 L 1286,1378 L 1290,1382 L 1291,1382 L 1295,1386 L 1296,1386 L 1300,1390 L 1301,1390 L 1305,1394 L 1306,1394 L 1310,1398 L 1311,1398 L 1315,1402 L 1316,1402 L 1320,1406 L 1321,1406 L 1324,1409 L 1325,1409 L 1329,1413 L 1330,1413 L 1333,1416 L 1334,1416 L 1338,1420 L 1339,1420 L 1342,1423 L 1343,1423 L 1346,1426 L 1347,1426 L 1350,1429 L 1351,1429 L 1354,1432 L 1355,1432 L 1358,1435 L 1359,1435 L 1362,1438 L 1363,1438 L 1366,1441 L 1367,1441 L 1370,1444 L 1371,1444 L 1374,1447 L 1375,1447 L 1377,1449 L 1378,1449 L 1381,1452 L 1382,1452 L 1385,1455 L 1386,1455 L 1388,1457 L 1389,1457 L 1391,1459 L 1392,1459 L 1395,1462 L 1396,1462 L 1398,1464 L 1399,1464 L 1401,1466 L 1402,1466 L 1404,1468 L 1405,1468 L 1407,1470 L 1408,1470 L 1410,1472 L 1411,1472 L 1413,1474 L 1414,1474 L 1418,1478 L 1417,1479 L 1417,1480 L 1416,1481 L 1416,1484 L 1415,1485 L 1415,1506 L 1416,1507 L 1416,1522 L 1415,1523 L 1415,1524 L 1408,1531 L 1408,1532 L 1400,1540 L 1400,1541 L 1392,1549 L 1392,1550 L 1388,1554 L 1388,1555 L 1387,1556 L 1387,1557 L 1385,1559 L 1385,1561 L 1384,1562 L 1384,1564 L 1383,1565 L 1383,1574 L 1384,1575 L 1384,1576 L 1385,1577 L 1385,1578 L 1387,1580 L 1387,1581 L 1392,1586 L 1393,1586 L 1397,1590 L 1398,1590 L 1400,1592 L 1401,1592 L 1402,1593 L 1403,1593 L 1404,1594 L 1405,1594 L 1406,1595 L 1407,1595 L 1408,1596 L 1409,1596 L 1410,1597 L 1411,1597 L 1412,1598 L 1414,1598 L 1415,1599 L 1418,1599 L 1419,1600 L 1425,1600 L 1426,1601 L 1434,1601 L 1435,1600 L 1440,1600 L 1441,1599 L 1444,1599 L 1445,1598 L 1446,1598 L 1447,1597 L 1449,1597 L 1450,1596 L 1451,1596 L 1452,1595 L 1454,1595 L 1455,1594 L 1456,1594 L 1457,1593 L 1458,1593 L 1459,1592 L 1460,1592 L 1461,1591 L 1462,1591 L 1463,1590 L 1464,1590 L 1466,1588 L 1467,1588 L 1472,1583 L 1473,1583 L 1481,1575 L 1482,1575 L 1490,1567 L 1491,1567 L 1499,1559 L 1500,1559 L 1509,1550 L 1510,1550 L 1511,1551 L 1517,1551 L 1518,1552 L 1525,1552 L 1526,1553 L 1533,1553 L 1534,1554 L 1541,1554 L 1542,1555 L 1548,1555 L 1549,1556 L 1554,1556 L 1555,1557 L 1560,1557 L 1561,1558 L 1565,1558 L 1566,1559 L 1570,1559 L 1571,1560 L 1575,1560 L 1576,1561 L 1580,1561 L 1581,1562 L 1584,1562 L 1585,1563 L 1588,1563 L 1589,1564 L 1593,1564 L 1594,1565 L 1596,1565 L 1597,1566 L 1600,1566 L 1601,1567 L 1603,1567 L 1604,1568 L 1606,1568 L 1607,1569 L 1610,1569 L 1611,1570 L 1614,1570 L 1615,1571 L 1679,1571 L 1680,1570 L 1684,1570 L 1685,1569 L 1688,1569 L 1689,1568 L 1692,1568 L 1693,1567 L 1694,1567 L 1695,1566 L 1697,1566 L 1698,1565 L 1699,1565 L 1700,1564 L 1701,1564 L 1703,1562 L 1704,1562 L 1705,1561 L 1706,1561 L 1708,1559 L 1709,1559 L 1712,1556 L 1713,1556 L 1719,1550 L 1719,1549 L 1722,1546 L 1722,1545 L 1723,1544 L 1723,1543 L 1724,1542 L 1724,1541 L 1725,1540 L 1725,1524 L 1724,1523 L 1724,1520 L 1723,1519 L 1723,1518 L 1722,1517 L 1722,1516 L 1720,1514 L 1720,1513 L 1719,1512 L 1718,1512 L 1716,1510 L 1715,1510 L 1714,1509 L 1712,1509 L 1711,1508 L 1708,1508 L 1707,1507 L 1704,1507 L 1703,1506 L 1700,1506 L 1699,1505 L 1697,1505 L 1695,1503 L 1694,1503 L 1690,1499 L 1690,1498 L 1689,1497 L 1689,1496 L 1691,1494 L 1694,1494 L 1695,1493 L 1697,1493 L 1699,1491 L 1700,1491 L 1702,1489 L 1703,1489 L 1705,1487 L 1706,1487 L 1715,1478 L 1715,1477 L 1717,1475 L 1717,1474 L 1718,1473 L 1718,1472 L 1719,1471 L 1719,1468 L 1720,1467 L 1720,1452 L 1719,1451 L 1719,1449 L 1718,1448 L 1718,1446 L 1717,1445 L 1717,1444 L 1716,1443 L 1716,1442 L 1714,1440 L 1714,1439 L 1708,1433 L 1707,1433 L 1705,1431 L 1703,1431 L 1702,1430 L 1700,1430 L 1699,1429 L 1694,1429 L 1693,1428 L 1658,1428 L 1657,1429 L 1654,1429 L 1653,1428 L 1640,1428 L 1639,1427 L 1633,1427 L 1632,1426 L 1627,1426 L 1626,1425 L 1622,1425 L 1621,1424 L 1618,1424 L 1617,1423 L 1615,1423 L 1614,1422 L 1612,1422 L 1611,1421 L 1609,1421 L 1608,1420 L 1606,1420 L 1605,1419 L 1604,1419 L 1603,1418 L 1602,1418 L 1601,1417 L 1600,1417 L 1599,1416 L 1598,1416 L 1597,1415 L 1596,1415 L 1595,1414 L 1594,1414 L 1593,1413 L 1592,1413 L 1591,1412 L 1590,1412 L 1589,1411 L 1588,1411 L 1587,1410 L 1586,1410 L 1585,1409 L 1584,1409 L 1583,1408 L 1582,1408 L 1581,1407 L 1580,1407 L 1579,1406 L 1578,1406 L 1576,1404 L 1575,1404 L 1574,1403 L 1573,1403 L 1572,1402 L 1571,1402 L 1570,1401 L 1569,1401 L 1568,1400 L 1567,1400 L 1566,1399 L 1565,1399 L 1564,1398 L 1563,1398 L 1562,1397 L 1561,1397 L 1560,1396 L 1559,1396 L 1558,1395 L 1557,1395 L 1556,1394 L 1555,1394 L 1554,1393 L 1553,1393 L 1552,1392 L 1551,1392 L 1550,1391 L 1549,1391 L 1548,1390 L 1546,1390 L 1545,1389 L 1542,1389 L 1541,1388 L 1537,1388 L 1536,1387 L 1535,1387 L 1534,1386 L 1533,1386 L 1513,1366 L 1513,1365 L 1504,1356 L 1504,1355 L 1498,1349 L 1498,1348 L 1493,1343 L 1493,1342 L 1489,1338 L 1489,1337 L 1485,1333 L 1485,1332 L 1482,1329 L 1482,1328 L 1479,1325 L 1479,1324 L 1476,1321 L 1476,1320 L 1473,1317 L 1473,1316 L 1471,1314 L 1471,1313 L 1469,1311 L 1469,1310 L 1467,1308 L 1467,1307 L 1465,1305 L 1465,1304 L 1463,1302 L 1463,1301 L 1461,1299 L 1461,1298 L 1459,1296 L 1459,1295 L 1457,1293 L 1457,1292 L 1455,1290 L 1455,1289 L 1453,1287 L 1453,1286 L 1452,1285 L 1452,1284 L 1450,1282 L 1450,1281 L 1448,1279 L 1448,1278 L 1447,1277 L 1447,1276 L 1445,1274 L 1445,1273 L 1444,1272 L 1444,1271 L 1442,1269 L 1442,1268 L 1440,1266 L 1440,1265 L 1439,1264 L 1439,1263 L 1437,1261 L 1437,1260 L 1436,1259 L 1436,1258 L 1434,1256 L 1434,1255 L 1433,1254 L 1433,1253 L 1431,1251 L 1431,1250 L 1430,1249 L 1430,1248 L 1428,1246 L 1428,1245 L 1427,1244 L 1427,1243 L 1425,1241 L 1425,1240 L 1424,1239 L 1424,1238 L 1422,1236 L 1422,1235 L 1421,1234 L 1421,1233 L 1419,1231 L 1419,1230 L 1418,1229 L 1418,1228 L 1417,1227 L 1417,1226 L 1415,1224 L 1415,1223 L 1414,1222 L 1414,1221 L 1412,1219 L 1412,1218 L 1411,1217 L 1411,1216 L 1409,1214 L 1409,1213 L 1408,1212 L 1408,1211 L 1406,1209 L 1406,1208 L 1405,1207 L 1405,1206 L 1404,1205 L 1404,1204 L 1402,1202 L 1402,1201 L 1401,1200 L 1401,1199 L 1399,1197 L 1399,1196 L 1398,1195 L 1398,1194 L 1397,1193 L 1397,1192 L 1395,1190 L 1395,1189 L 1394,1188 L 1394,1187 L 1392,1185 L 1392,1184 L 1391,1183 L 1391,1182 L 1390,1181 L 1390,1180 L 1388,1178 L 1388,1177 L 1387,1176 L 1387,1175 L 1385,1173 L 1385,1172 L 1384,1171 L 1384,1170 L 1382,1168 L 1382,1167 L 1381,1166 L 1381,1165 L 1380,1164 L 1380,1163 L 1378,1161 L 1378,1160 L 1377,1159 L 1377,1158 L 1375,1156 L 1375,1155 L 1374,1154 L 1374,1153 L 1372,1151 L 1372,1150 L 1371,1149 L 1371,1148 L 1369,1146 L 1369,1145 L 1368,1144 L 1368,1143 L 1366,1141 L 1366,1140 L 1365,1139 L 1365,1138 L 1363,1136 L 1363,1135 L 1362,1134 L 1362,1133 L 1360,1131 L 1360,1130 L 1358,1128 L 1358,1127 L 1357,1126 L 1357,1125 L 1355,1123 L 1355,1122 L 1353,1120 L 1353,1119 L 1352,1118 L 1352,1117 L 1350,1115 L 1350,1114 L 1348,1112 L 1348,1111 L 1346,1109 L 1346,1108 L 1345,1107 L 1345,1106 L 1343,1104 L 1343,1103 L 1341,1101 L 1341,1100 L 1339,1098 L 1339,1097 L 1337,1095 L 1337,1094 L 1335,1092 L 1335,1091 L 1333,1089 L 1333,1088 L 1331,1086 L 1331,1085 L 1329,1083 L 1329,1082 L 1326,1079 L 1326,1078 L 1324,1076 L 1324,1075 L 1322,1073 L 1322,1072 L 1319,1069 L 1319,1068 L 1317,1066 L 1317,1065 L 1314,1062 L 1314,1061 L 1311,1058 L 1311,1057 L 1308,1054 L 1308,1053 L 1305,1050 L 1305,1049 L 1301,1045 L 1301,1044 L 1298,1041 L 1298,1040 L 1293,1035 L 1293,1034 L 1289,1030 L 1289,1029 L 1284,1024 L 1284,1023 L 1278,1017 L 1278,1016 L 1274,1012 L 1273,1012 L 1269,1008 L 1268,1008 L 1265,1005 L 1264,1005 L 1261,1002 L 1260,1002 L 1258,1000 L 1257,1000 L 1253,996 L 1253,993 L 1254,992 L 1255,992 L 1257,990 L 1258,990 L 1259,989 L 1260,989 L 1261,988 L 1263,988 L 1264,987 L 1265,987 L 1266,986 L 1267,986 L 1268,985 L 1269,985 L 1271,983 L 1272,983 L 1273,982 L 1274,982 L 1275,981 L 1276,981 L 1277,980 L 1278,980 L 1279,979 L 1280,979 L 1281,978 L 1282,978 L 1283,977 L 1284,977 L 1285,976 L 1286,976 L 1287,975 L 1288,975 L 1290,973 L 1291,973 L 1292,972 L 1293,972 L 1294,971 L 1295,971 L 1296,970 L 1297,970 L 1298,969 L 1299,969 L 1300,968 L 1301,968 L 1302,967 L 1303,967 L 1304,966 L 1305,966 L 1306,965 L 1307,965 L 1309,963 L 1310,963 L 1311,962 L 1312,962 L 1313,961 L 1314,961 L 1315,960 L 1316,960 L 1317,959 L 1318,959 L 1320,957 L 1321,957 L 1322,956 L 1323,956 L 1324,955 L 1325,955 L 1327,953 L 1328,953 L 1329,952 L 1330,952 L 1331,951 L 1332,951 L 1334,949 L 1335,949 L 1336,948 L 1337,948 L 1339,946 L 1340,946 L 1341,945 L 1342,945 L 1344,943 L 1345,943 L 1346,942 L 1347,942 L 1349,940 L 1350,940 L 1352,938 L 1353,938 L 1355,936 L 1356,936 L 1358,934 L 1359,934 L 1361,932 L 1362,932 L 1364,930 L 1365,930 L 1367,928 L 1368,928 L 1371,925 L 1372,925 L 1375,922 L 1376,922 L 1379,919 L 1380,919 L 1384,915 L 1385,915 L 1390,910 L 1391,910 L 1397,904 L 1398,904 L 1408,894 L 1408,893 L 1413,888 L 1413,887 L 1419,881 L 1419,880 L 1423,876 L 1423,875 L 1426,872 L 1426,871 L 1428,869 L 1428,868 L 1429,867 L 1429,866 L 1430,865 L 1430,864 L 1431,863 L 1431,862 L 1432,861 L 1432,860 L 1433,859 L 1433,858 L 1434,857 L 1434,855 L 1435,854 L 1435,853 L 1436,852 L 1436,851 L 1437,850 L 1437,849 L 1438,848 L 1438,846 L 1439,845 L 1439,844 L 1440,843 L 1440,841 L 1441,840 L 1441,838 L 1442,837 L 1442,835 L 1443,834 L 1443,831 L 1444,830 L 1444,827 L 1445,826 L 1445,821 L 1446,820 L 1446,812 L 1447,811 L 1447,803 L 1449,801 L 1450,802 L 1457,802 L 1458,803 L 1464,803 L 1465,804 L 1472,804 L 1473,805 L 1480,805 L 1481,806 L 1487,806 L 1488,807 L 1494,807 L 1495,808 L 1501,808 L 1502,809 L 1508,809 L 1509,810 L 1514,810 L 1515,811 L 1520,811 L 1521,812 L 1525,812 L 1526,813 L 1531,813 L 1532,814 L 1536,814 L 1537,815 L 1541,815 L 1542,816 L 1546,816 L 1547,817 L 1550,817 L 1551,818 L 1554,818 L 1555,819 L 1559,819 L 1560,820 L 1563,820 L 1564,821 L 1567,821 L 1568,822 L 1571,822 L 1572,823 L 1575,823 L 1576,824 L 1579,824 L 1580,825 L 1583,825 L 1584,826 L 1587,826 L 1588,827 L 1591,827 L 1592,828 L 1595,828 L 1596,829 L 1599,829 L 1600,830 L 1602,830 L 1603,831 L 1606,831 L 1607,832 L 1610,832 L 1611,833 L 1613,833 L 1614,834 L 1617,834 L 1618,835 L 1621,835 L 1622,836 L 1624,836 L 1625,837 L 1628,837 L 1629,838 L 1631,838 L 1632,839 L 1634,839 L 1635,840 L 1638,840 L 1639,841 L 1641,841 L 1642,842 L 1644,842 L 1645,843 L 1647,843 L 1648,844 L 1651,844 L 1652,845 L 1654,845 L 1655,846 L 1657,846 L 1658,847 L 1660,847 L 1661,848 L 1663,848 L 1664,849 L 1666,849 L 1667,850 L 1669,850 L 1670,851 L 1672,851 L 1673,852 L 1675,852 L 1676,853 L 1678,853 L 1679,854 L 1681,854 L 1682,855 L 1683,855 L 1684,856 L 1686,856 L 1687,857 L 1689,857 L 1690,858 L 1692,858 L 1693,859 L 1694,859 L 1695,860 L 1697,860 L 1698,861 L 1700,861 L 1701,862 L 1703,862 L 1704,863 L 1704,862 L 1703,862 L 1702,861 L 1701,861 L 1700,860 L 1698,860 L 1697,859 L 1696,859 L 1695,858 L 1694,858 L 1693,857 L 1692,857 L 1691,856 L 1689,856 L 1688,855 L 1687,855 L 1686,854 L 1685,854 L 1684,853 L 1683,853 L 1682,852 L 1680,852 L 1679,851 L 1678,851 L 1677,850 L 1675,850 L 1674,849 L 1673,849 L 1672,848 L 1671,848 L 1670,847 L 1668,847 L 1667,846 L 1666,846 L 1665,845 L 1663,845 L 1662,844 L 1661,844 L 1660,843 L 1658,843 L 1657,842 L 1656,842 L 1655,841 L 1653,841 L 1652,840 L 1650,840 L 1649,839 L 1648,839 L 1647,838 L 1645,838 L 1644,837 L 1642,837 L 1641,836 L 1640,836 L 1639,835 L 1637,835 L 1636,834 L 1634,834 L 1633,833 L 1631,833 L 1630,832 L 1628,832 L 1627,831 L 1625,831 L 1624,830 L 1622,830 L 1621,829 L 1619,829 L 1618,828 L 1616,828 L 1615,827 L 1613,827 L 1612,826 L 1610,826 L 1609,825 L 1607,825 L 1606,824 L 1604,824 L 1603,823 L 1600,823 L 1599,822 L 1597,822 L 1596,821 L 1594,821 L 1593,820 L 1590,820 L 1589,819 L 1587,819 L 1586,818 L 1583,818 L 1582,817 L 1579,817 L 1578,816 L 1575,816 L 1574,815 L 1572,815 L 1571,814 L 1568,814 L 1567,813 L 1564,813 L 1563,812 L 1559,812 L 1558,811 L 1555,811 L 1554,810 L 1551,810 L 1550,809 L 1546,809 L 1545,808 L 1541,808 L 1540,807 L 1537,807 L 1536,806 L 1531,806 L 1530,805 L 1526,805 L 1525,804 L 1521,804 L 1520,803 L 1515,803 L 1514,802 L 1508,802 L 1507,801 L 1502,801 L 1501,800 L 1495,800 L 1494,799 L 1487,799 L 1486,798 L 1480,798 L 1479,797 L 1473,797 L 1472,796 L 1466,796 L 1465,795 L 1450,795 L 1449,794 L 1445,794 L 1444,793 L 1443,793 L 1442,792 L 1441,792 L 1437,788 L 1437,787 L 1435,785 L 1435,784 L 1433,782 L 1433,781 L 1432,780 L 1432,779 L 1430,777 L 1430,776 L 1428,774 L 1428,773 L 1423,768 L 1423,767 L 1413,757 L 1413,756 L 1407,750 L 1408,749 L 1409,749 L 1410,748 L 1411,748 L 1412,747 L 1413,747 L 1414,746 L 1416,746 L 1417,745 L 1418,745 L 1419,744 L 1420,744 L 1421,743 L 1422,743 L 1423,742 L 1425,742 L 1426,741 L 1427,741 L 1428,740 L 1430,740 L 1431,739 L 1432,739 L 1433,738 L 1434,738 L 1435,737 L 1437,737 L 1438,736 L 1439,736 L 1440,735 L 1442,735 L 1443,734 L 1445,734 L 1446,733 L 1447,733 L 1448,732 L 1450,732 L 1451,731 L 1453,731 L 1454,730 L 1455,730 L 1456,729 L 1458,729 L 1459,728 L 1461,728 L 1462,727 L 1464,727 L 1465,726 L 1467,726 L 1468,725 L 1470,725 L 1471,724 L 1473,724 L 1474,723 L 1476,723 L 1477,722 L 1479,722 L 1480,721 L 1483,721 L 1484,720 L 1486,720 L 1487,719 L 1489,719 L 1490,718 L 1493,718 L 1494,717 L 1496,717 L 1497,716 L 1500,716 L 1501,715 L 1504,715 L 1505,714 L 1507,714 L 1508,713 L 1511,713 L 1512,712 L 1515,712 L 1516,711 L 1519,711 L 1520,710 L 1523,710 L 1524,709 L 1528,709 L 1529,708 L 1532,708 L 1533,707 L 1536,707 L 1537,706 L 1541,706 L 1542,705 L 1546,705 L 1547,704 L 1551,704 L 1552,703 L 1556,703 L 1557,702 L 1561,702 L 1562,701 L 1566,701 L 1567,700 L 1572,700 L 1573,699 L 1577,699 L 1560,699 L 1559,700 L 1547,700 L 1546,701 L 1538,701 L 1537,702 L 1530,702 L 1529,703 L 1523,703 L 1522,704 L 1517,704 L 1516,705 L 1512,705 L 1511,706 L 1507,706 L 1506,707 L 1502,707 L 1501,708 L 1498,708 L 1497,709 L 1494,709 L 1493,710 L 1490,710 L 1489,711 L 1487,711 L 1486,712 L 1483,712 L 1482,713 L 1480,713 L 1479,714 L 1477,714 L 1476,715 L 1474,715 L 1473,716 L 1471,716 L 1470,717 L 1469,717 L 1468,718 L 1466,718 L 1465,719 L 1463,719 L 1462,720 L 1460,720 L 1459,721 L 1458,721 L 1457,722 L 1455,722 L 1454,723 L 1452,723 L 1451,724 L 1450,724 L 1449,725 L 1447,725 L 1446,726 L 1444,726 L 1443,727 L 1442,727 L 1441,728 L 1439,728 L 1438,729 L 1436,729 L 1435,730 L 1434,730 L 1433,731 L 1431,731 L 1430,732 L 1429,732 L 1428,733 L 1426,733 L 1425,734 L 1423,734 L 1422,735 L 1421,735 L 1420,736 L 1418,736 L 1417,737 L 1416,737 L 1415,738 L 1414,738 L 1413,739 L 1412,739 L 1411,740 L 1410,740 L 1409,741 L 1408,741 L 1407,742 L 1405,742 L 1404,743 L 1403,743 L 1402,744 L 1400,744 L 1399,745 L 1398,745 L 1397,744 L 1396,744 L 1395,743 L 1393,743 L 1392,742 L 1391,742 L 1390,741 L 1389,741 L 1388,740 L 1387,740 L 1385,738 L 1384,738 L 1383,737 L 1382,737 L 1380,735 L 1379,735 L 1372,728 L 1372,727 L 1369,724 L 1369,723 L 1367,721 L 1367,720 L 1366,719 L 1366,718 L 1365,717 L 1365,716 L 1364,715 L 1364,714 L 1363,713 L 1363,712 L 1362,711 L 1362,709 L 1361,708 L 1361,705 L 1360,704 L 1360,691 L 1361,690 L 1361,687 L 1362,686 L 1362,682 L 1363,681 L 1363,678 L 1364,677 L 1364,674 L 1365,673 L 1365,669 L 1366,668 L 1366,665 L 1367,664 L 1367,660 L 1368,659 L 1368,656 L 1369,655 L 1369,651 L 1370,650 L 1370,647 L 1371,646 L 1371,643 L 1372,642 L 1372,638 L 1373,637 L 1373,634 L 1374,633 L 1374,629 L 1375,628 L 1375,625 L 1376,624 L 1376,620 L 1377,619 L 1377,616 L 1378,615 L 1378,611 L 1379,610 L 1379,607 L 1380,606 L 1380,603 L 1381,602 L 1381,598 L 1382,597 L 1382,594 L 1383,593 L 1383,589 L 1384,588 L 1384,585 L 1385,584 L 1385,580 L 1386,579 L 1386,576 L 1387,575 L 1387,572 L 1388,571 L 1388,567 L 1389,566 L 1389,562 L 1390,561 L 1390,552 L 1391,551 L 1391,531 L 1390,530 L 1390,512 L 1389,511 L 1389,501 L 1388,500 L 1388,494 L 1387,493 L 1387,489 L 1386,488 L 1386,484 L 1385,483 L 1385,480 L 1384,479 L 1384,476 L 1383,475 L 1383,472 L 1382,471 L 1382,468 L 1381,467 L 1381,465 L 1380,464 L 1380,462 L 1379,461 L 1379,460 L 1378,459 L 1378,457 L 1377,456 L 1377,455 L 1376,454 L 1376,453 L 1375,452 L 1375,451 L 1374,450 L 1374,449 L 1373,448 L 1373,446 L 1372,445 L 1372,444 L 1371,443 L 1371,442 L 1370,441 L 1370,440 L 1360,430 L 1360,429 L 1358,427 L 1358,426 L 1357,425 L 1357,424 L 1356,423 L 1356,421 L 1355,420 L 1355,409 L 1356,408 L 1356,405 L 1357,404 L 1357,401 L 1358,400 L 1358,399 L 1359,398 L 1359,396 L 1360,395 L 1360,394 L 1361,393 L 1361,391 L 1362,390 L 1362,389 L 1363,388 L 1363,387 L 1364,386 L 1364,385 L 1365,384 L 1365,383 L 1366,382 L 1366,381 L 1367,380 L 1367,379 L 1368,378 L 1368,376 L 1369,375 L 1369,374 L 1370,373 L 1370,371 L 1371,370 L 1371,368 L 1372,367 L 1372,363 L 1373,362 L 1373,346 L 1372,345 L 1372,343 L 1371,344 L 1371,346 L 1370,347 L 1370,348 L 1369,349 L 1369,351 L 1368,352 L 1368,354 L 1367,355 L 1367,356 L 1366,357 L 1366,359 L 1365,360 L 1365,361 L 1364,362 L 1364,364 L 1363,365 L 1363,366 L 1362,367 L 1362,369 L 1361,370 L 1361,371 L 1360,372 L 1360,374 L 1359,375 L 1359,376 L 1358,377 L 1358,378 L 1357,379 L 1357,381 L 1356,382 L 1356,383 L 1355,384 L 1355,385 L 1354,386 L 1354,387 L 1353,388 L 1353,390 L 1351,392 L 1351,393 L 1350,394 L 1350,395 L 1348,397 L 1348,398 L 1347,399 L 1347,401 L 1346,402 L 1333,389 L 1332,389 L 1320,377 L 1319,377 L 1314,372 L 1314,313 L 1313,312 L 1313,308 L 1312,307 L 1312,306 L 1311,305 L 1311,303 L 1308,300 L 1308,306 L 1307,307 L 1307,332 L 1306,333 L 1306,349 L 1305,350 L 1305,352 L 1304,353 L 1304,356 L 1303,357 L 1303,358 L 1302,359 L 1299,356 L 1298,356 L 1296,354 L 1295,354 L 1292,351 L 1291,351 L 1289,349 L 1288,349 L 1286,347 L 1285,347 L 1282,344 L 1281,344 L 1279,342 L 1278,342 L 1276,340 L 1275,340 L 1272,337 L 1271,337 L 1269,335 L 1268,335 L 1266,333 L 1265,333 L 1262,330 L 1261,330 L 1259,328 L 1258,328 L 1256,326 L 1255,326 L 1253,324 L 1253,323 L 1252,322 L 1252,316 L 1253,315 L 1253,309 L 1254,308 L 1254,288 L 1253,287 L 1253,275 L 1252,274 L 1252,267 L 1251,266 L 1251,261 L 1250,260 L 1250,255 L 1249,254 L 1249,251 L 1248,250 L 1248,247 L 1247,246 L 1247,243 L 1246,242 L 1246,239 L 1245,238 L 1245,235 L 1244,234 L 1244,232 L 1243,231 L 1243,228 L 1242,227 L 1242,225 L 1241,224 L 1241,222 L 1240,221 L 1240,219 L 1239,218 L 1239,216 L 1238,215 L 1238,213 L 1237,212 L 1237,210 L 1236,209 L 1236,206 L 1235,205 L 1235,203 L 1234,202 L 1234,201 L 1233,200 L 1233,198 L 1232,197 L 1232,195 L 1231,194 L 1231,192 L 1230,191 L 1230,189 L 1229,188 L 1229,187 L 1228,186 L 1228,184 L 1227,183 L 1227,182 L 1226,181 L 1226,180 L 1225,179 L 1225,177 L 1224,176 L 1224,175 L 1223,174 L 1223,173 L 1222,172 L 1222,171 L 1221,170 L 1221,169 L 1220,168 L 1220,167 L 1219,166 L 1219,165 L 1218,164 L 1218,163 L 1217,162 L 1217,161 L 1216,160 L 1216,159 L 1215,158 L 1215,157 L 1214,156 L 1214,155 L 1213,154 L 1213,153 L 1212,152 L 1212,151 L 1210,149 L 1210,148 L 1209,147 L 1209,146 L 1208,145 L 1208,144 L 1206,142 L 1206,141 L 1205,140 L 1205,139 L 1204,138 L 1204,137 L 1202,135 L 1202,134 L 1200,132 L 1200,131 L 1199,130 L 1199,129 L 1197,127 L 1197,126 L 1194,123 L 1194,122 L 1192,120 L 1192,119 L 1189,116 L 1189,115 L 1185,111 L 1185,110 L 1178,103 L 1178,102 L 1172,96 L 1171,96 L 1165,90 L 1164,90 L 1160,86 L 1159,86 L 1157,84 L 1156,84 L 1153,81 L 1152,81 L 1150,79 L 1149,79 L 1147,77 L 1146,77 L 1144,75 L 1143,75 L 1142,74 L 1141,74 L 1140,73 L 1139,73 L 1137,71 L 1136,71 L 1135,70 L 1134,70 L 1133,69 L 1132,69 L 1131,68 L 1130,68 L 1129,67 L 1128,67 L 1127,66 L 1125,66 L 1124,65 L 1123,65 L 1122,64 L 1120,64 L 1119,63 L 1118,63 L 1117,62 L 1115,62 L 1114,61 L 1111,61 L 1110,60 L 1107,60 L 1106,59 Z" fill="black" /></svg>